<svg width="107" height="93" viewBox="0 0 107 93" fill="none" xmlns="http://www.w3.org/2000/svg">
<g id="avatar-principles ">
<circle id="halo" cx="66.1035" cy="43.9736" r="39.4959" stroke="#D2D2D2" stroke-width="1.00824"/>
<g id="avatar-principles _2">
<path id="arm-rest" fill-rule="evenodd" clip-rule="evenodd" d="M46.7878 48.0782C47.172 47.9568 47.5185 48.1234 47.5509 48.1371C47.5614 48.1414 47.7194 48.1976 47.8427 48.3212C48.1175 48.5966 48.1167 49.0428 47.8414 49.3176C47.6807 49.4779 47.4622 49.5437 47.2533 49.5169C47.1683 49.6436 47.0597 49.8184 46.9195 50.0516C46.5458 50.6736 46.0595 51.5243 45.2899 52.8129C44.3361 54.41 42.8729 56.6236 41.8494 58.256C40.8007 59.9286 40.2066 60.9417 39.6362 61.8607C39.3572 62.3102 39.1013 62.7079 38.8331 63.1245C38.5646 63.5417 38.283 63.9794 37.9481 64.5146C37.2768 65.5876 36.4056 67.0321 35.8241 68.0488C34.4876 70.3853 34.2135 71.3945 34.0193 71.9538C33.7331 72.7782 33.4608 74.2017 33.3384 75.2846C33.1994 76.5148 33.3859 77.5096 33.4567 77.848C33.4644 77.8843 33.5017 77.986 33.6202 78.1801C33.73 78.3599 33.8785 78.5709 34.0627 78.8232C34.334 79.1536 34.5639 79.3759 34.7681 79.542C34.8551 79.6107 34.9086 79.6505 35.0509 79.7182C35.1097 79.7461 35.1622 79.7818 35.2092 79.8224C35.2814 79.8164 35.3826 79.8069 35.5151 79.7908C35.8869 79.7455 36.4109 79.5512 37.0783 79.2296C37.7335 78.9137 38.4455 78.5172 39.1961 78.1123C39.9287 77.7172 40.6986 77.2918 43.4814 75.3352C46.2714 73.3735 51.0396 69.8972 53.6282 67.9934C56.4835 65.8934 57.3821 65.1789 57.9345 64.718C57.9019 64.675 57.8683 64.6281 57.8354 64.5762C57.8129 64.5408 57.7934 64.5032 57.7776 64.4644C57.5891 64.0021 57.4089 63.2634 57.268 62.5237C57.1247 61.7715 57.0105 60.9558 56.9679 60.3137C56.9658 60.2807 56.9658 60.2472 56.9683 60.2142C56.981 60.0447 56.992 59.8483 57.0054 59.665C56.5443 59.9337 56.0161 60.1592 55.5551 60.3615C54.9996 60.6052 54.4772 60.8629 52.9149 61.4471C52.0211 61.7813 51.3469 61.9662 50.8191 62.0912C50.251 62.2258 49.9741 62.2681 49.708 62.3513C48.6326 62.6876 46.6975 63.2037 45.5556 63.7896C44.3071 64.4302 43.2122 64.996 42.1766 65.7616C41.2187 66.4698 40.4117 67.0702 39.8269 67.4896C39.5355 67.6985 39.2881 67.8705 39.0994 67.9909C39.0067 68.0502 38.9139 68.1065 38.83 68.1492C38.7889 68.1702 38.7344 68.1956 38.6738 68.2167C38.6368 68.2296 38.4971 68.2788 38.3228 68.2597C38.258 68.2525 38.0561 68.2231 37.8848 68.046C37.6721 67.8261 37.667 67.5573 37.7011 67.4001C37.7298 67.2676 37.7898 67.1763 37.8119 67.1438C37.8405 67.1017 37.8684 67.0698 37.8852 67.0516C37.9392 66.9927 38.0087 66.9363 38.0197 66.927C38.1315 66.833 38.2638 66.7791 38.3989 66.765C38.5494 66.6663 38.752 66.526 39.0055 66.3441C39.5795 65.9325 40.3734 65.3422 41.3391 64.6282C42.4813 63.7838 43.6775 63.1692 44.9121 62.5358C46.1967 61.8767 48.3365 61.3034 49.2876 61.006C49.6104 60.905 50.0559 60.8239 50.4943 60.72C50.9729 60.6066 51.5895 60.4377 52.4208 60.1268C53.9385 59.5593 54.421 59.3194 54.9884 59.0705C55.5319 58.832 56.004 58.6317 56.3871 58.395L56.4456 58.3627C56.729 58.2227 57.0082 58.1294 57.269 58.0623C57.3308 58.0446 57.4099 58.0212 57.7198 57.8675C57.9791 57.7389 58.2794 57.785 58.4874 57.9604C58.5456 57.9157 58.6074 57.8684 58.6719 57.8187C58.9686 57.5626 59.2507 57.3296 59.4705 57.1935C59.4727 57.1921 59.4748 57.1907 59.477 57.1893C59.5087 57.098 59.551 57.0088 59.6033 56.924L59.68 56.804C60.0733 56.2095 60.6005 55.7065 61.0426 55.3202C61.2778 55.1148 61.5114 54.9234 61.6823 54.7793C61.8745 54.6173 61.9702 54.5286 62.0075 54.4838C62.2841 54.1509 62.6842 53.6146 63.0869 53.2151C63.9613 52.3476 65.3409 51.7996 65.8148 51.6185C66.1621 51.4859 66.5153 51.4724 66.7927 51.5077L66.845 51.5164C67.1012 51.565 67.2728 51.7185 67.3687 51.8391C67.4445 51.9344 67.4953 52.0349 67.5294 52.1233L67.5583 52.2073L67.5841 52.3109C67.6317 52.5509 67.5963 52.7814 67.5665 52.9316C67.5291 53.1205 67.4676 53.3255 67.4186 53.4924C67.2788 53.9688 66.9759 54.3504 66.6846 54.6531C66.5857 54.7559 66.4762 54.8594 66.3653 54.9621C66.7989 54.8503 67.3315 54.7107 67.953 54.5485C68.9995 54.2753 69.7428 54.2084 70.406 54.1104C71.7307 53.9148 72.6412 53.7738 73.3342 53.8276C73.5712 53.846 73.8098 53.943 73.8668 53.9632C73.9706 53.9999 74.2269 54.091 74.4118 54.3282L74.448 54.3778L74.4838 54.4342C74.6498 54.7208 74.6375 55.0494 74.523 55.3137C74.4859 55.3992 74.4321 55.4765 74.365 55.5412C74.2403 55.6612 74.091 55.7886 73.9263 55.92L73.936 55.9348L73.9625 55.9819C74.0851 56.2196 74.0662 56.4626 74.0265 56.6185C73.9793 56.8035 73.8751 56.9897 73.7092 57.1343C73.5013 57.3154 73.3037 57.5313 72.9367 57.9126C72.5813 58.2819 72.1051 58.7642 71.3839 59.4252C70.4686 60.2641 69.6689 61.0169 69.0589 61.561C68.7524 61.8343 68.4778 62.0693 68.2468 62.2461C68.1313 62.3344 68.0172 62.4156 67.9086 62.4818C67.8085 62.5427 67.6735 62.6159 67.5225 62.6559C66.8298 62.839 65.5746 62.9964 64.4054 63.1142C63.3583 63.2197 62.3257 63.2973 61.7105 63.3354C61.6645 63.3746 61.6223 63.4113 61.577 63.4486C61.4468 63.5561 61.2995 63.6758 61.1717 63.7793L60.2048 64.6244C59.8278 64.9539 59.4245 65.3046 59.0806 65.5957C58.4862 66.0991 57.7653 66.7003 54.4633 69.1288C51.8739 71.0333 47.0953 74.5169 44.2921 76.4879C41.4821 78.4636 40.663 78.9224 39.865 79.3527C39.1414 79.743 38.3834 80.165 37.6901 80.4992C37.009 80.8275 36.3051 81.1148 35.6851 81.1902C35.5158 81.2107 35.3824 81.2233 35.2832 81.2308C35.2083 81.2364 35.0998 81.244 35.0151 81.2366C34.8473 81.2219 34.6986 81.1493 34.5864 81.0405C34.5389 81.0292 34.4919 81.0131 34.446 80.9913C34.1815 80.8656 34.0384 80.7615 33.8927 80.6465C33.8903 80.6446 33.8875 80.6426 33.8851 80.6407C33.5947 80.4051 33.2929 80.1085 32.9609 79.7023C32.9529 79.6925 32.945 79.6823 32.9375 79.672C32.7469 79.4112 32.563 79.1532 32.4173 78.9144C32.2779 78.686 32.1358 78.4162 32.0773 78.1367C31.9924 77.7313 31.7749 76.5695 31.9379 75.1263C32.066 73.9931 32.3534 72.4548 32.6877 71.4917C32.8917 70.9043 33.1997 69.7985 34.6008 67.3489C35.1935 66.3128 36.0742 64.852 36.7531 63.7669C37.0933 63.2232 37.3797 62.7786 37.6481 62.3617C37.9167 61.9444 38.1667 61.5558 38.4388 61.1174C38.9707 60.2604 39.6227 59.1547 40.6554 57.5076C41.7133 55.8203 43.1322 53.6766 44.0798 52.0899C44.8074 50.8716 45.361 49.9087 45.7114 49.3255C45.8928 49.0238 46.0473 48.7764 46.177 48.5961C46.2414 48.5066 46.3127 48.4151 46.389 48.3366C46.4493 48.2746 46.5853 48.1423 46.7878 48.0782ZM66.0859 53.0262C65.5328 53.2512 64.6298 53.6698 64.0796 54.2157C63.7399 54.5527 63.4466 54.9572 63.0913 55.3846C62.96 55.5426 62.7633 55.7118 62.591 55.857C62.3974 56.0203 62.1936 56.1861 61.97 56.3814C61.5696 56.7311 61.1768 57.1153 60.8947 57.5238C60.9157 57.6273 60.9145 57.7369 60.8854 57.8459C60.8082 58.1339 60.563 58.3314 60.2836 58.363C60.2454 58.3787 60.2204 58.39 60.1969 58.4022C60.0814 58.477 59.8812 58.6367 59.5799 58.897C59.5702 58.9054 59.5601 58.9136 59.55 58.9215C59.2733 59.1351 59.0742 59.2866 58.9303 59.3987C58.8591 59.4541 58.8109 59.4928 58.7803 59.5185C58.774 59.5237 58.7693 59.5275 58.7661 59.5302C58.6694 59.6341 58.5462 59.7027 58.4148 59.7342C58.4032 59.8844 58.3924 60.0542 58.3773 60.2634C58.4173 60.8273 58.52 61.5642 58.6526 62.2602C58.7719 62.8863 58.908 63.4338 59.0277 63.7807C59.4897 63.3781 59.9435 62.9786 60.2478 62.7147L60.2667 62.6992C60.3967 62.594 60.5483 62.4706 60.6803 62.3617C60.8039 62.2597 60.9033 62.1759 61.1541 61.9412C61.4104 61.7014 61.7979 61.6907 62.0666 61.8992C62.6601 61.8571 63.4573 61.793 64.2643 61.7117C65.4359 61.5936 66.5626 61.4471 67.1371 61.2995C67.1443 61.2957 67.157 61.2893 67.1753 61.2781C67.2258 61.2474 67.2968 61.1986 67.3907 61.1267C67.5785 60.983 67.8209 60.7763 68.1205 60.5091C68.7229 59.9719 69.493 59.2466 70.4314 58.3864C70.6418 58.1936 70.8289 58.0155 70.9985 57.8527C70.7457 57.8934 70.4798 57.7953 70.3179 57.5747C70.1935 57.4052 70.1567 57.1985 70.1981 57.008C70.2073 56.729 70.3826 56.4704 70.6609 56.369C70.7509 56.3363 70.8315 56.3076 70.9049 56.282C70.9731 56.2362 71.0498 56.1854 71.1382 56.1285C71.1405 56.127 71.143 56.1255 71.1454 56.124C71.5649 55.8611 72.0378 55.553 72.4588 55.2562C72.0175 55.2987 71.4338 55.3833 70.6121 55.5047C69.8816 55.6126 69.2581 55.6643 68.3091 55.9121C67.4987 56.1236 66.8163 56.3053 66.3185 56.4296C66.0699 56.4917 65.8558 56.5424 65.6885 56.5762C65.6054 56.593 65.524 56.6077 65.4507 56.6171C65.3967 56.6241 65.2796 56.6381 65.1569 56.6216C64.986 56.5985 64.7047 56.5257 64.4907 56.283C64.2724 56.0353 64.2279 55.7326 64.2513 55.4981C64.2738 55.2721 64.3589 55.0719 64.4388 54.9287C64.5287 54.7675 64.6337 54.6292 64.8163 54.4621C65.1541 54.1529 65.4255 53.9291 65.6689 53.6762C65.9045 53.4313 66.0218 53.2472 66.0663 53.0954C66.0733 53.0716 66.0795 53.0484 66.0859 53.0262ZM46.9333 49.3913C46.9345 49.3921 46.9359 49.3928 46.9371 49.3937C46.9338 49.3913 46.9304 49.3889 46.9271 49.3864C46.9292 49.388 46.9312 49.3898 46.9333 49.3913ZM46.8745 49.3445C46.8771 49.3468 46.8801 49.3487 46.8827 49.351C46.87 49.3399 46.857 49.3287 46.8449 49.3166C46.8463 49.318 46.8588 49.3305 46.8745 49.3445Z" fill="#1E1E1E"/>
<path id="arm-lift " fill-rule="evenodd" clip-rule="evenodd" d="M60.8117 47.9281C61.0719 47.9088 61.2773 48.013 61.4012 48.1046C61.499 48.1771 61.5742 48.261 61.63 48.3376L61.6795 48.4112L61.7311 48.5045C61.8392 48.724 61.8648 48.956 61.875 49.1087C61.8877 49.3008 61.8815 49.5146 61.8774 49.6885C61.8656 50.1848 61.6716 50.632 61.4686 50.9998C61.3997 51.1247 61.3206 51.253 61.2401 51.3807C61.63 51.1605 62.1085 50.8879 62.6667 50.5704C63.6069 50.0356 64.3076 49.7786 64.9229 49.5123C66.1518 48.9805 66.9947 48.6088 67.678 48.4814C67.9117 48.4379 68.1672 48.4698 68.2275 48.4745C68.3373 48.4832 68.6086 48.5045 68.8486 48.6858L68.8961 48.7243L68.9453 48.7698C69.1798 49.0035 69.2531 49.3241 69.2109 49.609C69.1973 49.7011 69.1654 49.7897 69.1173 49.8695C69.028 50.0176 68.9167 50.1794 68.7918 50.3488L68.8049 50.3605L68.8427 50.3994C69.0227 50.5972 69.0672 50.8369 69.0692 50.9977C69.0715 51.1886 69.0189 51.3953 68.8961 51.5779C68.7422 51.8066 68.6071 52.0664 68.3514 52.5296C68.1037 52.9783 67.7686 53.5677 67.2431 54.3928C66.5762 55.44 65.9986 56.374 65.5502 57.0575C65.3249 57.4007 65.1206 57.6989 64.9432 57.9294C64.8545 58.0446 64.7651 58.1525 64.6772 58.2446C64.5963 58.3293 64.4848 58.435 64.3493 58.5126C63.7276 58.8688 62.556 59.3456 61.4572 59.762C60.5628 60.1009 59.6738 60.4147 59.0806 60.6164C59.0649 60.6386 59.0483 60.6607 59.0297 60.6814C58.7799 60.9598 58.6673 61.0728 58.5332 61.2048C58.4128 61.3231 58.2764 61.4553 58.1581 61.5695L57.2687 62.4958C56.9218 62.8569 56.5504 63.2414 56.2333 63.5614C55.6851 64.1147 55.019 64.7765 51.9415 67.4833C49.5279 69.6062 45.0712 73.4931 42.4505 75.7008C39.8234 77.914 39.0472 78.4425 38.2898 78.9408C37.6029 79.3927 36.8847 79.8791 36.2232 80.2724C35.9557 80.4314 35.6832 80.5829 35.4132 80.7163C35.405 80.7395 35.3958 80.7627 35.385 80.7854C35.2179 81.1368 34.7974 81.2865 34.446 81.1195C34.4355 81.1146 34.4254 81.1093 34.4154 81.1044C34.3719 81.1155 34.3288 81.1263 34.286 81.1354C34.1192 81.1706 33.9875 81.195 33.8893 81.2111C33.8151 81.2232 33.7075 81.24 33.6226 81.24C33.2335 81.2399 32.9181 80.9243 32.9179 80.5353C32.9179 80.3376 32.9994 80.1588 33.1305 80.0308C33.075 79.9671 33.0182 79.9006 32.9609 79.8306C32.9529 79.8208 32.945 79.8105 32.9375 79.8003C32.7469 79.5395 32.563 79.2814 32.4172 79.0426C32.2779 78.8143 32.1358 78.5444 32.0773 78.265C31.9924 77.8595 31.7749 76.6977 31.9379 75.2546C32.066 74.1214 32.3534 72.5831 32.6877 71.62C32.8916 71.0326 33.1997 69.9267 34.6008 67.4771C35.1935 66.4411 36.0742 64.9802 36.7531 63.8952C37.0933 63.3514 37.3797 62.9068 37.6481 62.4899C37.9167 62.0726 38.1667 61.684 38.4388 61.2457C38.9707 60.3887 39.6227 59.2829 40.6554 57.6359C41.7133 55.9486 43.1322 53.8049 44.0798 52.2182C44.8073 50.9999 45.361 50.037 45.7114 49.4538C45.8927 49.1521 46.0473 48.9047 46.177 48.7243C46.2413 48.6348 46.3127 48.5434 46.3889 48.4649C46.4492 48.4029 46.5852 48.2706 46.7877 48.2065C47.172 48.085 47.5185 48.2517 47.5509 48.2653C47.5605 48.2693 47.719 48.3254 47.8427 48.4494C48.1175 48.7249 48.1168 49.171 47.8413 49.4459C47.6807 49.6061 47.4622 49.672 47.2533 49.6451C47.1683 49.7718 47.0596 49.9467 46.9195 50.1798C46.5457 50.8019 46.0594 51.6526 45.2899 52.9411C44.3361 54.5383 42.8729 56.7519 41.8494 58.3843C40.8007 60.0568 40.2066 61.07 39.6362 61.9889C39.3572 62.4384 39.1013 62.8361 38.8331 63.2528C38.5776 63.6498 38.3102 64.0656 37.9963 64.5662C38.15 64.4301 38.3098 64.2893 38.4746 64.1436C39.5388 63.2029 40.6771 62.4864 41.8518 61.7477C43.074 60.9792 45.1556 60.2217 46.0772 59.8425C46.3899 59.7138 46.8267 59.594 47.2543 59.4523C47.7212 59.2976 48.3209 59.0757 49.122 58.6936C50.5844 57.996 51.0442 57.7149 51.5878 57.4174C52.1084 57.1325 52.5611 56.8917 52.9221 56.6225L52.9775 56.5854C53.2476 56.4213 53.5177 56.3037 53.7717 56.2141C53.8317 56.1911 53.9085 56.1609 54.2039 55.9808C54.2724 55.939 54.3454 55.9107 54.4196 55.8944C54.4687 55.8391 54.5204 55.7814 54.571 55.7245C54.7259 55.5503 54.9477 55.4714 55.1632 55.4915C55.1502 55.3384 55.1703 55.1801 55.2165 55.026L55.2595 54.89C55.4855 54.2141 55.8645 53.5917 56.1917 53.1042C56.3656 52.845 56.5418 52.5998 56.6696 52.4164C56.8132 52.2103 56.8826 52.0995 56.907 52.0465C57.0881 51.6534 57.3358 51.0319 57.6213 50.5418C58.2414 49.4776 59.4322 48.5911 59.8431 48.2935C60.1443 48.0755 60.482 47.9713 60.7591 47.9336L60.8117 47.9281ZM53.6482 57.8341C53.2123 58.1418 52.7059 58.4125 52.2646 58.654C51.7325 58.9452 51.2344 59.2476 49.729 59.9657C48.8678 60.3765 48.2124 60.6196 47.6975 60.7901C47.1434 60.9737 46.8711 61.0398 46.6133 61.1459C45.5712 61.5747 43.6884 62.2575 42.6019 62.9407C41.4141 63.6876 40.3726 64.3467 39.4077 65.1996C38.5153 65.9885 37.7637 66.657 37.2176 67.1258C36.9456 67.3593 36.7141 67.5523 36.5367 67.6887C36.4495 67.7558 36.3618 67.8199 36.282 67.8697C36.2429 67.8942 36.1908 67.9243 36.1324 67.9506C36.1062 67.9624 36.0267 67.998 35.9173 68.0149C35.8856 68.07 35.8543 68.1241 35.8241 68.177C34.4876 70.5135 34.2135 71.5228 34.0193 72.0821C33.7331 72.9065 33.4607 74.33 33.3384 75.4128C33.1994 76.643 33.3858 77.6379 33.4567 77.9763C33.4644 78.0126 33.5019 78.1145 33.6202 78.3083C33.73 78.4882 33.8785 78.6991 34.0627 78.9514C34.2673 79.2006 34.4483 79.3883 34.6125 79.5367C34.8725 79.4182 35.17 79.2589 35.503 79.0609C36.1282 78.6891 36.8028 78.232 37.5153 77.7633C38.2106 77.3058 38.9406 76.815 41.5425 74.6232C44.1508 72.4258 48.5979 68.5472 51.0107 66.4249C53.6714 64.0847 54.5048 63.2945 55.0149 62.7872C54.9785 62.7471 54.9406 62.7028 54.9031 62.6537C54.8776 62.6204 54.8548 62.5847 54.8356 62.5474C54.6076 62.1034 54.364 61.3832 54.1591 60.6587C53.9508 59.9218 53.7658 59.119 53.6674 58.483C53.6624 58.4504 53.6596 58.4169 53.6592 58.3839C53.657 58.2141 53.6507 58.0177 53.6482 57.8341ZM60.4694 49.5832C59.9933 49.9437 59.2293 50.5817 58.8391 51.2513C58.5982 51.6647 58.4196 52.1315 58.187 52.6363C58.101 52.8229 57.9548 53.0371 57.8261 53.2219C57.6813 53.4297 57.5273 53.6429 57.3619 53.8894C57.0657 54.3308 56.7858 54.8035 56.619 55.271C56.6661 55.3655 56.6933 55.472 56.6933 55.5848C56.6932 55.9738 56.3777 56.2895 55.9887 56.2895C55.9847 56.2895 55.9439 56.2897 55.8982 56.2853C55.8704 56.2827 55.836 56.2775 55.797 56.2688C55.7818 56.4095 55.7252 56.5472 55.6239 56.6611C55.5261 56.7711 55.4348 56.875 55.3628 56.957C55.3742 57.0407 55.3715 57.1279 55.3507 57.2151C55.3079 57.3944 55.1991 57.5407 55.0572 57.6359C55.0548 57.8221 55.0629 58.0311 55.0672 58.3103C55.1562 58.8686 55.3225 59.5937 55.5152 60.2754C55.6887 60.889 55.8722 61.423 56.0217 61.758C56.447 61.3166 56.8649 60.8791 57.1451 60.5895L57.1623 60.5723C57.2826 60.4563 57.423 60.32 57.545 60.2C57.6194 60.1268 57.6841 60.0618 57.7838 59.955C57.8272 59.7067 58.0027 59.4897 58.2589 59.4059C58.7713 59.2383 59.8591 58.8602 60.958 58.4438C62.0589 58.0266 63.1092 57.5934 63.626 57.3021C63.632 57.2966 63.6429 57.2873 63.6577 57.2718C63.6985 57.2291 63.7543 57.1634 63.8263 57.0698C63.9705 56.8825 64.1514 56.62 64.3717 56.2843C64.8145 55.6095 65.3705 54.7095 66.0543 53.6358C66.2075 53.3952 66.3424 53.1746 66.4641 52.9735C66.2304 53.0783 65.9478 53.0525 65.7343 52.8813C65.5702 52.7496 65.4813 52.5593 65.4721 52.3644C65.4089 52.0927 65.5114 51.7977 65.7539 51.6278C65.8319 51.5731 65.9021 51.5244 65.9662 51.4808C66.0202 51.4189 66.0817 51.3502 66.1523 51.2723C66.1542 51.2703 66.1563 51.2681 66.1582 51.2661C66.4953 50.9036 66.8723 50.4835 67.2021 50.088C66.7868 50.2432 66.245 50.4758 65.4827 50.8057C64.8051 51.099 64.2164 51.3104 63.3638 51.7953C62.6358 52.2094 62.0236 52.5615 61.5749 52.8104C61.3508 52.9347 61.1569 53.039 61.0041 53.1149C60.9282 53.1526 60.8536 53.188 60.7852 53.2161C60.7348 53.2368 60.6252 53.2808 60.5024 53.2966C60.3313 53.3185 60.0406 53.3208 59.7712 53.1417C59.4963 52.959 59.3752 52.6782 59.337 52.4456C59.3002 52.2216 59.3307 52.0063 59.3707 51.8473C59.4158 51.6683 59.4816 51.5074 59.6147 51.2988C59.8609 50.9128 60.0651 50.6261 60.2347 50.3188C60.3989 50.0215 60.4645 49.8132 60.4683 49.6551C60.4689 49.6303 60.4688 49.6062 60.4694 49.5832ZM46.9333 49.5195C46.9345 49.5204 46.9359 49.5211 46.9371 49.5219C46.9337 49.5196 46.9304 49.5171 46.9271 49.5147C46.9292 49.5162 46.9312 49.518 46.9333 49.5195ZM46.8744 49.4727C46.8771 49.475 46.8801 49.477 46.8827 49.4793C46.8699 49.4682 46.857 49.457 46.8449 49.4449C46.8463 49.4463 46.8588 49.4588 46.8744 49.4727Z" fill="#1E1E1E"/>
<g id="body-static">
<path id="arm-resting" fill-rule="evenodd" clip-rule="evenodd" d="M82.0052 46.8059C82.1495 46.4446 82.5594 46.2685 82.9208 46.4126C83.175 46.5141 83.3367 46.7473 83.3605 47.0024C83.3737 47.0227 83.3939 47.0512 83.4238 47.0877C83.8925 47.6591 84.5189 48.2218 85.1746 48.7982C85.8058 49.353 86.4864 49.9384 86.9611 50.5028C87.5417 51.1933 88.133 52.171 88.728 53.0804C88.9832 53.4704 89.2355 53.8082 89.5142 54.1904C89.7903 54.569 90.0836 54.9796 90.3951 55.4859C91.4774 57.2452 92.1585 58.6372 92.4534 59.2134C92.9052 60.0961 93.4058 61.0671 93.8972 62.2682C94.2619 63.1597 94.5702 63.9622 94.8173 64.6059C95.0695 65.263 95.2474 65.7255 95.3623 65.974C95.3643 65.9784 95.3666 65.9831 95.3685 65.9875C95.5219 66.3376 95.6771 66.7643 95.9407 67.6288L96.0608 68.0272L96.0639 68.0382C96.2876 68.8367 96.626 70.1181 97.0325 71.5951C97.1358 71.9702 96.9153 72.3581 96.5401 72.4615C96.377 72.5063 96.2116 72.49 96.0681 72.4264C95.9475 72.5494 95.8239 72.6573 95.7281 72.7412C95.3552 73.0907 94.9108 73.6391 93.826 74.4052C92.921 75.0444 92.1272 75.6071 91.5103 76.0345C90.9149 76.4469 90.4292 76.7725 90.1714 76.9016C89.9368 77.0191 89.6544 77.1219 89.3614 77.2305C89.0556 77.344 88.6927 77.4796 88.2425 77.6741C86.8006 78.2968 85.3376 78.8276 84.1488 79.1932C83.1231 79.5087 82.3082 79.7424 81.6728 79.9299C81.0267 80.1205 80.5849 80.258 80.2658 80.3869C79.8108 80.5706 79.3388 80.6917 78.9111 80.7977C78.4683 80.9075 78.077 81.0003 77.7075 81.1308C77.5267 81.1947 77.3748 81.289 77.2082 81.4157C76.7958 81.7294 76.0163 82.3405 75.2972 82.7129C74.9471 82.8942 74.6217 83.0608 74.3685 83.1867C74.2423 83.2494 74.1296 83.3042 74.0388 83.346C73.9717 83.377 73.8558 83.4302 73.7574 83.4565C73.6944 83.4732 73.6313 83.4801 73.5692 83.4795C73.2093 83.6816 72.874 83.8703 72.6577 83.9891C72.6552 83.9904 72.6525 83.9919 72.6501 83.9932C72.2727 84.1948 71.9547 84.3228 71.3732 84.5145C71.2184 84.5881 71.0626 84.6848 70.8037 84.828C70.5622 84.9616 70.2561 85.1185 69.918 85.2103C69.6037 85.2956 69.2603 85.4606 68.8201 85.6662C68.4126 85.8565 67.921 86.0817 67.4172 86.1878C66.9612 86.2839 66.3909 86.3773 65.9087 86.3327C65.6977 86.3131 65.4415 86.2611 65.2161 86.0684C65.1179 85.9844 65.0222 85.8686 64.9556 85.7271C64.6195 85.7783 64.2503 85.8273 63.8786 85.8589C63.2518 85.9122 62.5538 85.9261 61.9865 85.8011C61.7021 85.7384 61.3301 85.6445 61.0065 85.4587C60.7906 85.3347 60.5321 85.1607 60.2891 84.9126C60.2089 84.8308 59.9767 84.596 59.9498 84.2444C59.9316 84.0056 60.0129 83.8009 60.1387 83.6378C60.2352 83.5128 60.3644 83.4037 60.488 83.3078C60.7304 83.1196 61.1647 82.8053 61.4569 82.6313C61.7884 82.434 62.1599 82.3359 62.4751 82.2346C62.8188 82.1241 63.2624 81.9671 63.903 81.6393C64.466 81.3513 65.0383 81.0709 66.3416 80.2757C66.9368 79.9126 67.7609 79.398 68.3696 78.9097C69.4674 78.0291 70.2907 77.3116 70.9431 76.9181C71.2279 76.7463 71.4912 76.5856 71.7094 76.4649C71.9067 76.3558 72.1569 76.2267 72.3975 76.1811C72.6952 76.1247 73.0208 76.1524 73.1896 76.1762C73.2122 76.1023 73.249 76.0245 73.3073 75.9485C73.4716 75.7342 73.6918 75.6861 73.766 75.6735C73.8113 75.6659 73.8488 75.664 73.8689 75.6632C73.8881 75.6625 73.9057 75.6625 73.9081 75.6625C74.0948 75.6625 74.2642 75.7357 74.3902 75.8542C74.552 75.7912 74.6759 75.7307 74.7728 75.6611C75.346 75.2496 75.865 74.9657 76.8697 74.5232C78.052 74.0026 79.0112 73.4723 79.4193 73.1944C79.6839 73.0143 79.9132 72.8637 80.2871 72.7281C81.1198 72.4263 81.9133 72.0611 83.0154 71.5534C83.1581 71.4877 83.3306 71.3833 83.6272 71.209C83.9083 71.0437 84.2613 70.8407 84.7094 70.6199C84.9656 70.4937 85.1998 70.3819 85.4055 70.2844C85.5939 70.1951 85.7536 70.1194 85.8892 70.0535C85.8576 69.9796 85.823 69.9116 85.775 69.8436C85.6029 69.5998 85.5108 69.3181 85.4633 69.1944C85.4048 69.0423 85.3685 68.9787 85.3201 68.928C85.2287 68.8325 85.0917 68.6944 84.9912 68.586C84.885 68.4715 84.7594 68.3277 84.6622 68.1686C84.5843 68.0411 84.5232 67.8954 84.4847 67.8077C84.4394 67.7046 84.3969 67.6113 84.3395 67.5107C84.1348 67.1525 83.9047 66.8072 83.6506 66.4361C83.4003 66.0705 83.1227 65.674 82.8475 65.2425C82.4343 64.5945 82.1035 64.0548 81.7688 63.2083C81.4268 62.3433 81.1589 61.6112 80.9877 61.079C80.9031 60.8159 80.8364 60.5847 80.7978 60.4046C80.7793 60.3184 80.7608 60.2161 80.7561 60.1163C80.7539 60.0682 80.7531 59.989 80.7702 59.8992C80.7835 59.83 80.8311 59.6211 81.0286 59.4591C81.0619 59.4318 81.1317 59.3767 81.2272 59.3345C81.366 59.2732 81.485 59.2709 81.53 59.2709C81.9191 59.2709 82.2346 59.5864 82.2347 59.9755C82.2347 60.0542 82.2209 60.1296 82.1972 60.2002C82.2249 60.3096 82.2685 60.4585 82.3293 60.6475C82.4873 61.1386 82.7429 61.839 83.0794 62.6901C83.364 63.4098 83.6368 63.8595 84.0356 64.4848C84.2947 64.891 84.5524 65.2589 84.8133 65.6399C85.0704 66.0155 85.3282 66.4002 85.563 66.8112C85.6593 66.9796 85.7262 67.1296 85.775 67.2406C85.8303 67.3665 85.8484 67.4068 85.8648 67.4337C85.8863 67.4689 85.9334 67.5295 86.0248 67.6281C86.1219 67.7328 86.2085 67.8178 86.339 67.9543C86.5882 68.215 86.7051 68.497 86.7787 68.6885C86.8632 68.9082 86.8829 68.969 86.9263 69.0306C87.0771 69.244 87.1647 69.4433 87.2229 69.5904C87.237 69.6259 87.2498 69.6596 87.2601 69.6867C87.271 69.7155 87.279 69.7362 87.2862 69.7542C87.294 69.7737 87.2985 69.7829 87.2993 69.7848L87.3203 69.8196C87.3995 69.9599 87.5267 70.2543 87.4053 70.5917C87.3345 70.7882 87.1995 70.9062 87.1527 70.9461C87.0874 71.0018 87.0179 71.0474 86.9611 71.082C86.8459 71.1522 86.7011 71.226 86.5502 71.2998C86.3958 71.3754 86.2104 71.4628 86.009 71.5582C85.8052 71.6548 85.5786 71.7627 85.3322 71.8841C84.9295 72.0825 84.6109 72.2656 84.3415 72.424C84.0877 72.5732 83.8304 72.73 83.6052 72.8338C82.5157 73.3357 81.6662 73.7275 80.7675 74.0532C80.5637 74.1271 80.4519 74.1965 80.2125 74.3595C79.7065 74.704 78.6622 75.2737 77.4377 75.8129C76.4829 76.2334 76.0599 76.472 75.5948 76.8059C75.521 76.8589 75.4458 76.9061 75.3708 76.9487C75.4232 76.9998 75.4755 77.0513 75.5281 77.1025C75.8652 77.4316 76.2123 77.7736 76.4712 78.0718L76.5765 78.1967L76.5947 78.2201C76.8471 78.5583 77.1681 79.0275 77.5685 79.6942C77.9125 79.5901 78.258 79.5078 78.5722 79.4299C79.0025 79.3233 79.3858 79.2222 79.738 79.08C80.1309 78.9214 80.6385 78.7657 81.2736 78.5783C81.9196 78.3877 82.719 78.1584 83.7346 77.8461C84.8736 77.4958 86.2883 76.9829 87.6837 76.3803C88.1694 76.1705 88.561 76.0244 88.8715 75.9092C89.1947 75.7893 89.3909 75.7164 89.5404 75.6415C89.6872 75.568 90.0761 75.3133 90.7075 74.8759C91.3176 74.4533 92.1035 73.8962 93.0129 73.2539C93.9945 72.5607 94.2849 72.1619 94.7674 71.7103C94.773 71.7051 94.7789 71.7002 94.7846 71.6952C94.8973 71.5964 94.987 71.5178 95.0702 71.4316C95.1259 71.374 95.1881 71.3044 95.404 70.9829C95.1168 69.9258 94.8836 69.0499 94.7099 68.4294L94.5919 68.0375C94.3389 67.2083 94.2033 66.8419 94.0834 66.5662L94.028 66.4423C93.8925 66.1309 93.7132 65.6626 93.5015 65.1111C93.2543 64.4671 92.951 63.6776 92.5928 62.8019C92.1271 61.6637 91.6529 60.7424 91.1989 59.8555C90.8978 59.2673 90.2424 57.9276 89.1945 56.2243C88.9124 55.7658 88.645 55.3905 88.3753 55.0207C88.1081 54.6544 87.8287 54.28 87.5488 53.8522C86.9036 52.8661 86.3908 52.0144 85.8824 51.4098C85.4931 50.947 84.9127 50.4443 84.2442 49.8566C83.6001 49.2905 82.887 48.6556 82.3341 47.9817C82.1389 47.7436 82.0411 47.5451 81.9904 47.3771C81.9705 47.3113 81.9451 47.21 81.947 47.0905C81.9494 46.9419 81.994 46.834 82.0052 46.8059ZM73.7347 77.5605C73.556 77.6195 73.3626 77.6842 73.1869 77.736C73.1641 77.7427 73.1407 77.7481 73.1174 77.7525C73.0823 77.7591 73.0498 77.764 73.0241 77.7677C73.0113 77.7695 72.9984 77.7713 72.9877 77.7728C72.9764 77.7743 72.9667 77.7756 72.957 77.7769C72.92 77.7822 72.8911 77.7869 72.86 77.7941C72.6805 77.8357 72.5016 77.8042 72.3532 77.7198C72.1719 77.8217 71.9513 77.9558 71.6712 78.1248C71.1262 78.4535 70.4417 79.0544 69.2515 80.009C68.5628 80.5615 67.6649 81.119 67.0755 81.4786C65.7278 82.3009 65.1196 82.6003 64.5451 82.8942C63.8209 83.2647 63.3036 83.4486 62.9066 83.5762C62.4812 83.713 62.3316 83.7506 62.1778 83.8422C62.0393 83.9246 61.8364 84.0648 61.6489 84.2004C61.6687 84.2125 61.6885 84.2251 61.7084 84.2365C61.8311 84.3069 62.0193 84.3651 62.29 84.4247C62.6419 84.5023 63.1654 84.5052 63.7592 84.4547C64.3378 84.4055 64.9234 84.3117 65.3713 84.2296C65.4643 84.2126 65.5535 84.1928 65.6317 84.1749C65.6679 84.1667 65.7093 84.1571 65.7405 84.1501C65.7656 84.1445 65.8143 84.1336 65.8599 84.1271C65.8902 84.1228 65.9843 84.1104 66.1011 84.134C66.2229 84.1586 66.5003 84.2569 66.6213 84.5754C66.6663 84.6938 66.6716 84.803 66.663 84.8923C66.8074 84.8711 66.9634 84.8431 67.1265 84.8087C67.4486 84.7408 67.8006 84.5869 68.2238 84.3893C68.614 84.207 69.0886 83.975 69.5488 83.8501C69.7168 83.8045 69.9014 83.7163 70.1217 83.5944C70.3099 83.4904 70.5851 83.3244 70.813 83.2201C70.837 83.2091 70.8619 83.1994 70.887 83.1912C71.455 83.005 71.6954 82.9047 71.9795 82.7535C72.2316 82.615 72.6551 82.3771 73.0967 82.129C73.2242 82.0574 73.3645 82.0299 73.5 82.0412C73.5654 82.0102 73.6465 81.9716 73.7412 81.9246C73.9833 81.8043 74.3001 81.6421 74.6489 81.4614C75.2139 81.1688 75.8557 80.6741 76.3067 80.3304C75.9591 79.7571 75.6847 79.3579 75.4754 79.0766C75.2707 78.8273 74.9393 78.4973 74.5436 78.1111C74.3436 77.9158 74.1301 77.7084 73.9208 77.5C73.8599 77.5196 73.7977 77.5397 73.7347 77.5605ZM81.6263 60.6727C81.6276 60.6725 81.6291 60.6725 81.6305 60.6723C81.632 60.6721 81.6337 60.6716 81.6353 60.6713C81.6323 60.6717 81.6293 60.6723 81.6263 60.6727Z" fill="#1E1E1E"/>
<g id="neck">
<path d="M68.4527 38.905C68.8393 38.8608 69.1887 39.1385 69.2331 39.5251C69.2314 39.5104 69.255 39.6218 69.3676 39.9363C69.4682 40.2172 69.6193 40.6059 69.8256 41.0982C69.9526 41.4012 70.1342 41.7301 70.3407 42.0799C70.5363 42.4113 70.7714 42.7891 70.9532 43.1167C71.0541 43.2986 71.141 43.4687 71.214 43.6115C71.2894 43.759 71.3447 43.8666 71.3936 43.9511C71.6401 44.0066 71.932 44.06 72.2772 44.129L72.7307 44.2233L72.7445 44.2267C72.8787 44.2589 73.0238 44.2965 73.1959 44.374C73.3594 44.4475 73.5255 44.5469 73.7279 44.6816C74.0519 44.8972 74.1397 45.3348 73.924 45.6588C73.7084 45.9826 73.2711 46.0704 72.9472 45.8549C72.7695 45.7366 72.6776 45.6864 72.6179 45.6595C72.5672 45.6367 72.5238 45.6231 72.419 45.5979C71.9089 45.487 71.2582 45.374 70.8792 45.2772C70.8348 45.2659 70.7915 45.2501 70.7502 45.2304C70.3819 45.0547 70.2278 44.75 70.1762 44.6613C70.1038 44.5366 70.0293 44.3905 69.9588 44.2525C69.8851 44.1082 69.8087 43.9584 69.721 43.8004C69.5498 43.4918 69.3507 43.1751 69.1271 42.7963C68.9143 42.4359 68.6915 42.0389 68.5256 41.6429C68.3129 41.1352 68.1522 40.7224 68.0408 40.4114C67.9414 40.1339 67.853 39.8627 67.8326 39.6854C67.7884 39.2988 68.0661 38.9494 68.4527 38.905Z" fill="#1E1E1E"/>
<path d="M62.3905 40.8804C62.5538 40.5271 62.9725 40.3731 63.3258 40.5363C63.6791 40.6996 63.8331 41.1183 63.6699 41.4716C63.4817 41.8788 63.4024 42.0764 63.3419 42.254C63.2894 42.4302 63.2413 42.6387 63.1861 42.8899C63.1313 43.1388 63.0699 43.4271 62.9958 43.7233C62.9812 43.7817 62.9593 43.8381 62.9304 43.8909C62.8777 43.9872 62.7855 44.133 62.6269 44.258C62.4591 44.3903 62.2593 44.4661 62.0413 44.4875C61.6013 44.5307 61.1156 44.5926 60.5476 44.6069C58.6603 44.6546 57.0271 44.7086 56.6653 44.7005C56.2762 44.6918 55.9681 44.3694 55.9767 43.9803C55.9854 43.5912 56.3078 43.2828 56.6969 43.2915C57.0145 43.2985 58.5743 43.2472 60.5122 43.1982C60.939 43.1874 61.2964 43.1471 61.6934 43.106C61.7336 42.9314 61.7714 42.7596 61.8094 42.5871C61.8653 42.3329 61.9248 42.072 61.9962 41.8353L62.0031 41.8136C62.0873 41.5642 62.1897 41.315 62.3905 40.8804Z" fill="#1E1E1E"/>
</g>
</g>
<g id="head-motion">
<g id="eyes-open">
<path d="M59.658 27.2098C59.8553 27.1595 60.06 27.1964 60.2247 27.3034L60.2925 27.3533L60.3392 27.3963C60.4437 27.5005 60.5136 27.6353 60.5374 27.782C60.5501 27.8596 60.5504 27.9478 60.5505 27.9912C60.6067 28.1163 60.627 28.2582 60.6018 28.4014C60.7189 28.3683 60.8403 28.3348 60.9634 28.2999C61.3378 28.1937 61.7274 28.411 61.8336 28.7854C61.9398 29.1597 61.7224 29.5493 61.3481 29.6556C60.8235 29.8043 60.2914 29.9553 59.9604 30.0358C59.95 30.0383 59.9396 30.0406 59.9291 30.0427C59.449 30.1364 59.0989 30.1448 58.8198 30.1074C58.7207 30.0941 58.6255 30.0601 58.5407 30.0072C58.4496 29.9504 58.2187 29.7719 58.2038 29.4326C58.1905 29.1264 58.3693 28.9384 58.421 28.8882C58.5339 28.7785 58.6611 28.7304 58.6766 28.7241C58.7575 28.6911 58.8411 28.6699 58.8896 28.6591L58.9842 28.6412C59.0107 28.6372 59.0351 28.6343 59.0575 28.6322C59.0505 28.6022 59.0447 28.5731 59.0403 28.5448C59.0086 28.3388 59.0278 28.1507 59.0475 28.0273C59.0669 27.9064 59.0982 27.7776 59.1484 27.6626C59.1683 27.617 59.2181 27.5086 59.3159 27.4083C59.3633 27.3598 59.4763 27.256 59.658 27.2098Z" fill="#1E1E1E"/>
<path d="M66.2342 26.2598C66.3163 26.2327 66.471 26.1979 66.6553 26.2484C66.8388 26.2987 66.9773 26.4129 67.0651 26.545L67.0999 26.6025L67.1226 26.6486C67.172 26.7556 67.1955 26.8623 67.2079 26.9269C67.2189 26.9841 67.2267 27.0454 67.2334 27.1093C67.7279 26.8976 68.0443 26.7269 68.1931 26.6451C68.2669 26.5999 68.3939 26.5158 68.6387 26.4001C68.9905 26.2339 69.4107 26.3844 69.577 26.7363C69.7432 27.0882 69.5927 27.5084 69.2408 27.6746C69.0632 27.7586 69.0151 27.7953 68.906 27.8608C68.8986 27.8653 68.8909 27.8697 68.8833 27.8739C68.6882 27.9812 68.2281 28.2323 67.4932 28.5287C67.4529 28.5449 67.4112 28.5576 67.3686 28.5662C67.1675 28.6066 66.9838 28.6408 66.8164 28.6704C66.7706 28.7011 66.7185 28.7301 66.6584 28.7523C66.4945 28.8129 66.3306 28.8095 66.1884 28.7678C65.9655 28.7965 65.7903 28.8118 65.6554 28.8153C65.2664 28.8252 64.9432 28.5178 64.9332 28.1288C64.9237 27.756 65.2056 27.4439 65.5715 27.4097C65.5744 27.4014 65.5771 27.3929 65.5804 27.3846C65.5813 27.3577 65.582 27.3311 65.5835 27.3048C65.5897 27.1978 65.604 26.974 65.7043 26.7597L65.7511 26.6713C65.8023 26.5846 65.8669 26.5037 65.9389 26.437C65.9774 26.4013 66.0796 26.3107 66.2342 26.2598Z" fill="#1E1E1E"/>
</g>
<g id="eyes-closed">
<path d="M60.9634 28.2448C61.3378 28.1386 61.7274 28.3559 61.8336 28.7303C61.9397 29.1046 61.7224 29.4942 61.3481 29.6005C60.8235 29.7492 60.2914 29.9002 59.9604 29.9807C59.95 29.9832 59.9396 29.9855 59.9291 29.9876C59.449 30.0813 59.0989 30.0897 58.8198 30.0522C58.7207 30.039 58.6255 30.005 58.5407 29.9521C58.4496 29.8953 58.2187 29.7168 58.2038 29.3775C58.1905 29.0713 58.3693 28.8833 58.421 28.8331C58.5339 28.7234 58.661 28.6754 58.6766 28.669C58.7575 28.636 58.8411 28.6148 58.8896 28.604L58.9842 28.5861C59.0709 28.5729 59.1349 28.5723 59.1804 28.5723C59.2843 28.5723 59.3826 28.5959 59.4715 28.6363C59.524 28.6286 59.5813 28.6191 59.6438 28.6071C59.9438 28.5335 60.4351 28.3946 60.9634 28.2448Z" fill="#1E1E1E"/>
<path d="M68.6387 26.345C68.9905 26.1788 69.4107 26.3293 69.577 26.6812C69.7432 27.0331 69.5927 27.4533 69.2408 27.6195C69.0632 27.7035 69.0151 27.7403 68.906 27.8057C68.8986 27.8102 68.8909 27.8146 68.8833 27.8188C68.6882 27.9261 68.2281 28.1772 67.4932 28.4736C67.4529 28.4898 67.4112 28.5025 67.3686 28.5111C66.5122 28.6833 65.9724 28.7521 65.6554 28.7602C65.2664 28.7701 64.9432 28.4627 64.9332 28.0737C64.9232 27.6847 65.2306 27.3611 65.6196 27.3512C65.8058 27.3464 66.2302 27.2997 67.0259 27.1416C67.6406 26.8904 68.0244 26.6828 68.1931 26.59C68.2669 26.5448 68.3939 26.4607 68.6387 26.345Z" fill="#1E1E1E"/>
</g>
<g id="face">
<path fill-rule="evenodd" clip-rule="evenodd" d="M63.9694 36.8419C64.0217 36.8419 64.0626 36.8479 64.0809 36.8508C64.1025 36.8543 64.1202 36.8579 64.1311 36.8604C64.1522 36.8654 64.1689 36.8704 64.1769 36.8728C64.1934 36.8779 64.207 36.8826 64.2123 36.8845C64.2243 36.8888 64.2358 36.8934 64.2422 36.8959C64.2555 36.901 64.2771 36.9093 64.2956 36.9165C64.3268 36.9287 64.3688 36.9448 64.4212 36.9644C64.4902 36.9749 64.5915 36.9808 64.725 36.975C64.7377 36.971 64.7645 36.9614 64.8255 36.9351C65.1828 36.7812 65.5974 36.9463 65.7514 37.3036C65.9053 37.661 65.7403 38.0756 65.3829 38.2296C65.2191 38.3001 65.0744 38.3535 64.8795 38.3772C64.8641 38.3791 64.8485 38.3805 64.833 38.3813C64.581 38.3951 64.3196 38.3865 64.0822 38.3349C64.0506 38.328 64.0193 38.3188 63.989 38.3077C63.899 38.2746 63.8299 38.2478 63.7832 38.2296C63.772 38.2252 63.7616 38.2214 63.7536 38.2182L63.7381 38.212C63.74 38.2127 63.7432 38.2138 63.7471 38.2151C63.7482 38.2155 63.7497 38.2157 63.7512 38.2162C63.469 38.1242 63.2647 37.8595 63.2647 37.5466C63.2647 37.1574 63.5803 36.8419 63.9694 36.8419ZM63.9009 38.2478C63.9175 38.2494 63.9412 38.2512 63.9694 38.2513C63.9456 38.2512 63.922 38.2498 63.8988 38.2475L63.9009 38.2478ZM63.8586 38.2423C63.8678 38.2438 63.8795 38.245 63.893 38.2464C63.8755 38.2445 63.8581 38.242 63.841 38.2389C63.8464 38.2399 63.8524 38.2413 63.8586 38.2423ZM63.809 38.2327C63.8115 38.2333 63.8148 38.2334 63.818 38.234C63.803 38.2308 63.7882 38.2272 63.7736 38.223C63.7819 38.2255 63.7942 38.2292 63.809 38.2327Z" fill="#1E1E1E"/>
<path d="M62.6188 31.3237C62.6649 31.3266 62.7022 31.3336 62.7248 31.3382C62.7453 31.3424 62.7634 31.3467 62.7651 31.3471C63.1425 31.4417 63.3719 31.8247 63.2774 32.2022C63.2529 32.3 63.2085 32.3875 63.1504 32.4623C63.1073 32.6855 63.1032 32.9586 63.1288 33.2417C63.1596 33.583 63.2262 33.8755 63.2578 33.9945C63.2618 34.0096 63.2659 34.0186 63.2688 34.0238C63.2718 34.0291 63.2768 34.0366 63.2864 34.0468C63.2864 34.0468 63.2885 34.0489 63.2919 34.0517C63.2957 34.0548 63.301 34.0585 63.307 34.0623C63.3099 34.0642 63.3132 34.0653 63.3159 34.0668C63.3853 34.0529 63.4952 34.0173 63.5867 33.977C63.6624 33.9437 63.7121 33.9131 63.8001 33.8576C64.1292 33.6499 64.5644 33.7484 64.7721 34.0775C64.9798 34.4066 64.8813 34.8418 64.5523 35.0495C64.4598 35.1078 64.3341 35.1878 64.1552 35.2666C63.9932 35.338 63.7802 35.4123 63.5836 35.4507C63.3545 35.4955 63.1227 35.4966 62.8669 35.4063C62.6579 35.3326 62.4353 35.1995 62.2589 35.0117C62.0905 34.8323 61.9642 34.6149 61.8956 34.3565C61.8488 34.1805 61.7645 33.8073 61.7249 33.3683C61.6863 32.9407 61.6835 32.382 61.8484 31.8722L61.8797 31.7886C61.9268 31.6798 62.027 31.5102 62.2331 31.4042C62.3795 31.329 62.5197 31.3175 62.6188 31.3237Z" fill="#1E1E1E"/>
</g>
<g id="head">
<path d="M72.0323 20.2551C72.4163 20.1934 72.7779 20.4547 72.8398 20.8387C73.01 21.8951 73.178 22.9369 73.3112 24.0824C73.4442 25.2256 73.5393 26.4328 73.5838 27.2415C73.6295 28.0747 73.6222 28.5076 73.505 29.3569C73.3923 30.173 73.1819 31.361 73.0095 32.2211C72.8415 33.0589 72.7192 33.6349 72.5484 34.1019C72.2848 34.8225 71.7572 36.2691 70.6683 37.644C70.2142 38.2173 69.7111 38.8298 69.2551 39.3427C68.8227 39.8292 68.3673 40.3026 68.0247 40.524C67.8853 40.614 67.3507 40.9676 66.67 41.262C66.014 41.5458 65.0937 41.833 64.2146 41.6553C63.6643 41.5441 62.9845 41.3988 62.3744 41.219C62.0693 41.1291 61.7679 41.0265 61.5018 40.9097C61.2465 40.7977 60.973 40.651 60.763 40.4534C60.4719 40.1795 59.6169 39.3398 58.8358 38.0063C58.429 37.3117 58.0472 36.5797 57.7464 35.9187C57.4523 35.2723 57.2134 34.646 57.1233 34.178C57.0623 33.8614 56.9378 33.4133 56.763 32.7927C56.5918 32.1846 56.3805 31.4386 56.1626 30.5647C55.9267 29.6188 55.7111 28.5546 55.6107 27.9324C55.4851 27.1546 55.3909 26.4534 55.5446 25.2795C55.6374 24.5706 55.733 23.9733 55.8271 23.526C55.8738 23.3038 55.923 23.1051 55.975 22.9428C56.001 22.8618 56.0315 22.7786 56.0673 22.7009C56.0986 22.6329 56.1546 22.5231 56.2469 22.4229L56.2981 22.3706C56.3566 22.3151 56.4372 22.2518 56.5424 22.2051C56.7046 22.1331 56.8477 22.1369 56.8711 22.1369C57.2601 22.137 57.5756 22.4526 57.5757 22.8416C57.5757 23.0638 57.4725 23.262 57.3118 23.3911C57.2818 23.488 57.2457 23.6286 57.2062 23.8164C57.1227 24.2134 57.0325 24.7706 56.9419 25.4626C56.8132 26.4459 56.8873 26.996 57.0021 27.7077C57.0955 28.2862 57.3028 29.3115 57.5303 30.2237C57.7424 31.0742 57.9477 31.8011 58.1194 32.4107C58.2875 33.0076 58.4323 33.5226 58.5072 33.9113C58.5642 34.2072 58.7438 34.7078 59.0292 35.3351C59.308 35.9479 59.667 36.6367 60.0518 37.2937C60.7394 38.4676 61.4906 39.2028 61.7289 39.427C61.7649 39.4609 61.8658 39.5302 62.0682 39.619C62.2597 39.7031 62.4994 39.7865 62.7729 39.8671C63.3198 40.0283 63.9482 40.1636 64.4936 40.2738C64.9359 40.3632 65.5219 40.2232 66.1105 39.9686C66.6741 39.7248 67.1228 39.4286 67.2601 39.34C67.4146 39.2401 67.7468 38.9184 68.2019 38.4065C68.6335 37.9209 69.1186 37.331 69.5638 36.7689C70.501 35.5855 70.9654 34.3266 71.2247 33.6178C71.3513 33.2716 71.4544 32.8085 71.6276 31.9441C71.7964 31.102 72.0014 29.9433 72.109 29.1639C72.212 28.4179 72.2181 28.0768 72.1764 27.3189C72.1335 26.5364 72.0405 25.358 71.9111 24.2455C71.782 23.1353 71.619 22.1228 71.4483 21.063C71.3865 20.6788 71.648 20.317 72.0323 20.2551Z" fill="#1E1E1E"/>
<path fill-rule="evenodd" clip-rule="evenodd" d="M64.0277 36.8144C64.0801 36.8144 64.121 36.8204 64.1392 36.8233C64.1609 36.8268 64.1786 36.8304 64.1895 36.8329C64.2107 36.8379 64.2273 36.8429 64.2352 36.8453C64.2519 36.8504 64.2654 36.8552 64.2707 36.857C64.2827 36.8613 64.2942 36.8659 64.3006 36.8684C64.3139 36.8735 64.3354 36.8818 64.3539 36.889C64.3852 36.9012 64.4271 36.9172 64.4795 36.9369C64.5486 36.9474 64.6499 36.9533 64.7834 36.9475C64.7961 36.9435 64.823 36.9338 64.8838 36.9076C65.2412 36.7538 65.6558 36.9188 65.8098 37.2761C65.9636 37.6335 65.7986 38.0481 65.4413 38.2021C65.2774 38.2726 65.1327 38.326 64.9379 38.3497C64.9225 38.3515 64.9069 38.353 64.8914 38.3538C64.6393 38.3676 64.378 38.359 64.1406 38.3074C64.109 38.3005 64.0777 38.2913 64.0474 38.2802C63.9574 38.2471 63.8882 38.2203 63.8416 38.2021C63.8303 38.1977 63.82 38.1939 63.812 38.1907L63.7965 38.1845C63.7984 38.1852 63.8016 38.1863 63.8055 38.1876C63.8066 38.188 63.808 38.1881 63.8096 38.1886C63.5273 38.0967 63.323 37.832 63.323 37.5191C63.3231 37.1299 63.6386 36.8144 64.0277 36.8144ZM63.9593 38.2203C63.9758 38.2219 63.9995 38.2237 64.0277 38.2237C64.0039 38.2237 63.9804 38.2223 63.9572 38.22L63.9593 38.2203ZM63.9169 38.2148C63.9262 38.2163 63.9379 38.2175 63.9514 38.2189C63.9338 38.217 63.9165 38.2145 63.8994 38.2114C63.9048 38.2124 63.9108 38.2138 63.9169 38.2148ZM63.8674 38.2052C63.8699 38.2057 63.8731 38.2058 63.8763 38.2065C63.8614 38.2033 63.8465 38.1997 63.832 38.1955C63.8403 38.198 63.8526 38.2017 63.8674 38.2052Z" fill="#1E1E1E"/>
<path d="M62.7928 31.3234C62.8389 31.3263 62.8762 31.3332 62.8988 31.3379C62.9199 31.3422 62.939 31.3468 62.939 31.3468C63.3165 31.4414 63.5459 31.8244 63.4514 32.2019C63.4269 32.2996 63.3825 32.3872 63.3244 32.462C63.2813 32.6852 63.2772 32.9582 63.3027 33.2413C63.3335 33.5827 63.4002 33.8752 63.4318 33.9942C63.4358 34.0094 63.4399 34.0182 63.4428 34.0235C63.4458 34.0288 63.4507 34.0363 63.4603 34.0465C63.4603 34.0465 63.4624 34.0485 63.4658 34.0513C63.4697 34.0545 63.4749 34.0582 63.481 34.062C63.484 34.0639 63.4872 34.0649 63.4899 34.0665C63.5593 34.0526 63.6692 34.017 63.7607 33.9767C63.8363 33.9434 63.8861 33.9127 63.9741 33.8573C64.3032 33.6497 64.7384 33.7481 64.9461 34.0771C65.1537 34.4062 65.0552 34.8415 64.7262 35.0492C64.6338 35.1075 64.5081 35.1875 64.3292 35.2663C64.1672 35.3376 63.9541 35.412 63.7576 35.4504C63.5285 35.4951 63.2967 35.4963 63.0409 35.406C62.8318 35.3322 62.6093 35.1992 62.4329 35.0113C62.2644 34.8319 62.1382 34.6147 62.0695 34.3562C62.0228 34.1802 61.9385 33.807 61.8989 33.368C61.8603 32.9404 61.8575 32.3817 62.0224 31.8719L62.0537 31.7883C62.1008 31.6795 62.201 31.5099 62.4071 31.4039C62.5535 31.3287 62.6937 31.3171 62.7928 31.3234Z" fill="#1E1E1E"/>
</g>
<path id="head_2" d="M56.8031 22.8431C56.7772 22.8431 56.7512 22.8431 56.6973 22.9016C56.5473 23.0644 56.3588 23.9711 56.1753 25.3722C56.0341 26.4509 56.1183 27.0765 56.2385 27.8213C56.3354 28.4217 56.5468 29.4664 56.7785 30.3955C57.2086 32.1201 57.6115 33.3405 57.7473 34.0458C57.8945 34.8098 58.5842 36.2997 59.3759 37.6513C60.1103 38.905 60.9133 39.6925 61.178 39.9416C61.6699 40.4045 63.1903 40.7443 64.2863 40.9658C65.6077 41.2329 67.2981 40.1118 67.5746 39.9332C68.0717 39.6121 69.1488 38.3433 70.0481 37.2078C71.0614 35.9285 71.5573 34.5757 71.8187 33.861C71.9675 33.4544 72.0802 32.9351 72.2508 32.0839C72.4214 31.2327 72.629 30.0595 72.7392 29.2617C72.8493 28.4639 72.8558 28.0772 72.8121 27.2815C72.7685 26.4859 72.6744 25.2932 72.5432 24.1652C72.4121 23.0373 72.2467 22.0103 72.0763 20.9521" stroke="#1E1E1E" stroke-width="1.40938" stroke-linecap="round" stroke-linejoin="round"/>
<g id="hair">
<path fill-rule="evenodd" clip-rule="evenodd" d="M66.9639 16.2605C67.3726 16.2438 67.7733 16.3519 68.1231 16.4934C68.5028 16.6471 68.873 16.861 69.2049 17.0811C69.8667 17.5201 70.4497 18.0345 70.7268 18.272C70.9403 18.4551 71.1189 18.6939 71.2753 18.9385C71.394 19.1241 71.5132 19.3348 71.6352 19.5627C71.915 19.5267 72.2008 19.6612 72.344 19.9237C72.4462 20.111 72.7785 20.7104 73.2755 22.197C73.4139 22.6111 73.5587 23.1616 73.7159 23.8676C73.7308 23.8975 73.7458 23.9274 73.7607 23.9574C73.8275 24.0922 73.8465 24.238 73.8253 24.3762C73.8876 24.674 73.9517 24.9952 74.018 25.341C74.3437 25.862 74.6406 26.2572 74.9161 26.5955C75.3573 27.1167 75.7413 27.5632 76.0371 27.8989C76.1857 28.0675 76.31 28.2057 76.407 28.3101C76.4555 28.3623 76.4953 28.4042 76.5268 28.4361C76.5424 28.4518 76.5549 28.4642 76.5646 28.4736C76.5682 28.477 76.5715 28.4799 76.5739 28.4822C76.6627 28.5555 76.7766 28.6438 76.9947 28.8001C77.3111 29.0267 77.3838 29.4671 77.1571 29.7835C76.9305 30.0998 76.4904 30.1725 76.1741 29.9459C75.9365 29.7757 75.7931 29.6661 75.6686 29.5629C75.6645 29.5595 75.6606 29.5558 75.6566 29.5523C75.5179 29.4319 75.269 29.159 74.9798 28.8307C74.8473 28.6804 74.6992 28.5091 74.5369 28.3208C74.8342 30.222 75.1172 32.3989 75.2905 34.2904C75.3542 34.9861 75.401 35.6358 75.4371 36.2345C75.4894 36.4919 75.5446 36.7598 75.6022 37.0365C75.7557 37.724 75.8181 37.8706 75.8562 37.9546C75.892 38.0335 75.9131 38.0725 76.0227 38.2006C76.2757 38.4962 76.2411 38.9409 75.9456 39.194C75.8288 39.294 75.6885 39.3483 75.5461 39.3602C75.5474 39.4998 75.5483 39.6298 75.5489 39.7497C75.5536 40.8255 75.5365 41.0661 75.5055 41.3566C75.4643 41.7435 75.1173 42.024 74.7303 41.9828C74.3433 41.9416 74.0628 41.5942 74.1041 41.2072C74.1265 40.9969 74.1442 40.8197 74.1395 39.7559C74.1362 39.0097 74.1211 37.8699 74.0356 36.413C73.92 35.841 73.8177 35.3118 73.7407 34.8495C73.6292 34.1803 73.551 33.5519 73.6003 33.136C73.6062 33.0861 73.6124 33.0395 73.6179 32.9959C73.5225 32.3494 73.4291 31.708 73.3498 31.0446C73.2609 30.3009 73.1954 29.5925 73.0246 28.445C72.8961 27.5807 72.7334 26.525 72.5729 25.6727C72.5193 25.5807 72.4646 25.4858 72.4098 25.3874C72.0275 24.701 71.8161 24.2008 71.4845 23.7282C71.3841 23.5851 71.2659 23.4021 71.1463 23.2173C71.0233 23.0274 70.893 22.8261 70.7575 22.6278C70.4732 22.2121 70.2146 21.8829 70.0173 21.7198C69.9934 21.7001 69.9688 21.6804 69.944 21.6599C70.0735 21.8557 70.1986 22.0806 70.3143 22.3058C70.4727 22.6141 70.6394 22.9714 70.807 23.3525L70.9746 23.7406L70.9863 23.7702C71.117 24.1208 71.2502 24.4608 71.5144 25.2398C71.516 25.2443 71.5175 25.249 71.5189 25.2536C71.7089 25.8534 72.012 26.8671 72.3213 27.9013C72.4329 28.2742 72.2211 28.6669 71.8482 28.7784C71.4754 28.8899 71.0827 28.6781 70.9711 28.3053C70.66 27.2652 70.3609 26.2654 70.1753 25.6792C69.9266 24.9466 69.802 24.6276 69.6725 24.2808C69.4569 23.7743 69.2484 23.315 69.0608 22.9499C68.8591 22.5575 68.7186 22.3484 68.6523 22.2807C68.4326 22.056 68.2124 21.8158 67.8207 21.5505C67.2191 21.1431 66.8257 20.8858 66.5407 20.725C66.253 20.5629 66.1437 20.54 66.1016 20.5358C65.5511 20.4806 64.6997 20.4915 64.5601 20.499C64.1714 20.5198 63.8394 20.2214 63.8186 19.8328C63.8125 19.7182 63.8346 19.6086 63.8781 19.5104C63.855 19.5196 63.8313 19.5279 63.8069 19.5348C63.7182 19.5598 63.6522 19.5797 63.5997 19.5957C63.6591 19.699 63.6937 19.8184 63.6937 19.946C63.6937 20.3194 63.403 20.6238 63.0358 20.648C62.9902 20.6732 62.9227 20.714 62.8297 20.7753C62.6336 20.9043 62.3572 21.1017 61.9911 21.3774C61.1356 22.0218 60.5866 22.5798 60.377 22.8123C60.2935 22.9049 60.1722 23.1159 59.9121 23.6016C59.6723 24.0495 59.3517 24.6531 58.8943 25.4039C58.4993 26.0525 57.7691 26.9487 57.3783 27.454C57.2921 27.5655 57.2148 27.6624 57.1446 27.7496C57.1354 27.8498 57.1272 27.9536 57.1195 28.0648C57.0733 28.7371 57.0606 29.6502 57.0899 30.4462C57.0909 30.4605 57.092 30.4747 57.093 30.4889C57.3003 30.6116 57.4395 30.8369 57.4395 31.0952C57.4395 31.1734 57.4393 31.3525 57.4798 32.6336L57.5142 33.5898C57.5327 33.6233 57.555 33.6559 57.5851 33.6944C57.6354 33.7588 57.6721 33.8293 57.6969 33.9026C57.792 33.8548 57.8991 33.8276 58.0128 33.8276C58.402 33.8276 58.7175 34.1431 58.7175 34.5323C58.7175 34.6811 58.7176 34.8291 58.7192 35.1172C58.7208 35.4015 58.7237 35.811 58.7629 36.4062C58.7896 36.8112 58.8336 37.2969 58.8837 37.8214C58.8911 37.8267 58.8986 37.8309 58.905 37.8358C59.0357 37.9366 59.094 38.0574 59.1018 38.0726C59.1215 38.111 59.1334 38.1433 59.1386 38.1579C59.1498 38.189 59.1566 38.2144 59.1589 38.2236C59.1591 38.2243 59.1591 38.225 59.1593 38.2257C59.2695 38.1904 59.39 38.1818 59.5116 38.2061C59.8933 38.2823 60.1411 38.6533 60.0649 39.035C60.0647 39.0359 60.0611 39.056 60.0608 39.0976C60.0606 39.1243 60.0626 39.1588 60.0666 39.2015C60.1323 39.3402 60.2 39.4412 60.2487 39.5002C60.2693 39.5198 60.3024 39.5485 60.3873 39.6124C60.6983 39.8463 60.7609 40.2882 60.527 40.5992C60.2931 40.9102 59.8512 40.9729 59.5402 40.7389C59.4715 40.6873 59.4084 40.638 59.3468 40.5848C59.2414 40.7365 59.0777 40.8473 58.8809 40.879C58.4967 40.9408 58.1348 40.6793 58.073 40.295C58.0149 39.9344 57.9572 39.5811 57.9102 39.2907C57.8105 39.2338 57.7258 39.1532 57.6639 39.0556C57.663 39.3479 57.6598 39.5844 57.6556 39.8233C57.6488 40.2124 57.3279 40.5223 56.9389 40.5156C56.5498 40.5088 56.2398 40.188 56.2466 39.7989C56.2564 39.2345 56.2659 38.6893 56.2294 37.3256C56.2223 37.0629 56.2129 36.7725 56.2032 36.4667C56.0953 37.064 55.9855 37.6745 55.9011 38.1297C55.7263 39.0724 55.6724 39.2892 55.5326 39.6905C55.4045 40.058 55.0027 40.2521 54.6352 40.124C54.5295 40.0872 54.4389 40.0271 54.3654 39.9523C54.2693 39.9818 54.1656 39.992 54.0595 39.9768C53.6743 39.9215 53.407 39.5644 53.4622 39.1792C53.601 38.2119 53.7242 37.3156 53.8232 36.5865C53.6647 36.6742 53.4727 36.7013 53.285 36.6467C52.9113 36.538 52.6967 36.1471 52.8053 35.7734C52.9203 35.3783 53.0222 35.1432 53.2506 34.9087L53.2912 34.8705C53.5553 34.6392 53.7271 34.4959 53.8466 34.3754C53.9673 34.1823 54.0878 33.9883 54.2433 33.5702C54.4249 33.082 54.6543 32.286 54.9428 30.8815C55.0219 30.4964 55.0847 30.0906 55.1414 29.6493C54.8762 29.8214 54.5271 29.7953 54.2908 29.5843C53.9862 29.9026 53.5619 30.3243 53.1364 30.7463C52.86 31.0202 52.4139 31.0181 52.1399 30.7418C51.8659 30.4654 51.8677 30.0193 52.144 29.7453C52.5997 29.2934 53.0298 28.8669 53.3184 28.5627C53.5932 28.273 53.7252 28.1101 53.8734 27.9068C54.222 27.4067 54.612 26.8259 54.9521 26.0883C55.0557 25.8637 55.1481 25.6605 55.2301 25.4796C55.3117 25.2998 55.3841 25.1392 55.4462 25.0045C55.5077 24.8711 55.5635 24.7533 55.6114 24.6597C55.621 24.6409 55.6338 24.6156 55.6496 24.5867C55.672 24.3883 55.6952 24.1985 55.7187 24.018C55.8121 23.3033 55.923 22.6795 56.0869 22.2146C56.3586 21.4442 56.7401 20.5337 57.2578 19.7475C57.3541 19.6013 57.4582 19.4517 57.5713 19.3304C57.6408 19.256 57.7334 19.1708 57.8524 19.1013C57.8841 19.0657 57.9145 19.0341 57.9412 19.0073C58.0419 18.9065 58.2495 18.7222 58.3366 18.6395C58.6629 18.3298 59.0192 18.1242 59.3915 17.9365C59.9593 17.6504 60.4907 17.5306 60.7758 17.4689L60.8302 17.4596C61.1441 17.4171 61.4577 17.4232 61.7716 17.4524C61.9072 17.4651 62.0352 17.4769 62.3018 17.4896C62.5141 17.4997 62.6994 17.6032 62.8214 17.758C63.0819 17.5803 63.4369 17.5961 63.682 17.8113C63.725 17.819 63.785 17.8274 63.864 17.8357C63.9364 17.8433 64.0157 17.8491 64.1004 17.8553C64.0883 17.8036 64.0811 17.7498 64.0811 17.6943C64.0811 17.3309 64.3562 17.0322 64.7094 16.9941C64.7049 16.9946 64.7014 16.9945 64.6994 16.9948C64.6987 16.9949 64.6977 16.995 64.697 16.9951C64.6975 16.995 64.6982 16.9949 64.6988 16.9948C64.7126 16.9926 64.7341 16.9892 64.7624 16.9851C64.8191 16.977 64.9002 16.9664 65.0077 16.9552C65.3166 16.9229 65.6443 16.9552 65.9602 17.0182C65.9856 16.9075 66.0387 16.7728 66.1491 16.6414L66.2114 16.5743C66.3678 16.42 66.6023 16.2887 66.8823 16.2657L66.9639 16.2605ZM55.9235 32.8985C55.8823 33.0539 55.8418 33.1977 55.8027 33.3314C55.8539 33.3198 55.9102 33.3131 55.9716 33.3142C55.9778 33.3143 55.9838 33.315 55.9899 33.3152C55.9678 33.1895 55.9456 33.0507 55.9235 32.8985Z" fill="#1E1E1E"/>
<path d="M72.5065 32.1374C72.8956 32.1374 73.2111 32.4529 73.2111 32.8421C73.2111 32.8272 73.2105 32.8441 73.2184 32.9491C73.2256 33.0459 73.2392 33.206 73.2638 33.4666L73.3574 34.343C73.3965 34.7268 73.4424 35.2094 73.4912 35.813C73.5885 37.015 73.6962 38.6794 73.815 40.4344C73.8413 40.8227 73.5478 41.1589 73.1595 41.1852C72.7867 41.2104 72.4628 40.9407 72.4142 40.5755C72.3539 40.6287 72.284 40.6732 72.2047 40.7042C71.8421 40.8454 71.4335 40.6659 71.2922 40.3033C71.2138 40.1023 71.1553 39.9265 71.1236 39.6905C71.0959 39.4841 71.0906 39.2413 71.085 38.9159V38.9128C71.0727 37.9722 71.0659 37.1643 71.0654 36.5655C71.0652 36.2664 71.0664 36.0168 71.0695 35.8278C71.0723 35.6588 71.0769 35.4922 71.0898 35.3935L71.1046 35.3154C71.1235 35.2397 71.1818 35.0305 71.3816 34.8733C71.4912 34.7871 71.607 34.7452 71.7044 34.727C71.7489 34.7187 71.786 34.7161 71.8097 34.715C71.8314 34.714 71.8505 34.7139 71.8506 34.7139C71.8942 34.7139 71.9368 34.7184 71.9783 34.726C71.9293 34.2256 71.8895 33.8704 71.8623 33.6173C71.862 33.6143 71.8616 33.6114 71.8613 33.6084C71.8116 33.0825 71.8018 32.9116 71.8018 32.8421C71.8018 32.4529 72.1173 32.1374 72.5065 32.1374Z" fill="#1E1E1E"/>
<path d="M69.4716 37.2764C69.7465 37.001 70.1926 37.0005 70.4681 37.2753C70.7258 37.5325 70.7426 37.9394 70.5187 38.2164C70.5156 38.2705 70.5124 38.3555 70.5128 38.4886C70.5139 38.8649 70.5366 39.5268 70.5606 40.2293C70.574 40.6183 70.2693 40.9444 69.8804 40.9578C69.4914 40.971 69.1653 40.6664 69.1519 40.2775C69.1283 39.5871 69.1046 38.897 69.1034 38.4927C69.1023 38.1204 69.1136 37.8735 69.2115 37.6473L69.2462 37.5747C69.33 37.4144 69.4314 37.3166 69.4716 37.2764Z" fill="#1E1E1E"/>
<path d="M64.6908 16.9962C64.689 16.9964 64.6883 16.9965 64.6884 16.9965C64.6887 16.9965 64.6897 16.996 64.6912 16.9958C64.6923 16.9957 64.6944 16.9955 64.697 16.9951C64.6944 16.9955 64.6926 16.9959 64.6908 16.9962Z" fill="#1E1E1E"/>
</g>
</g>
<g id="torso">
<path d="M50.223 71.5326C49.908 73.0267 49.2883 74.2258 49.0199 74.8912C48.4444 76.3185 48.3375 76.9603 48.2585 77.5021C48.2393 77.6337 48.2377 77.6786 48.24 77.7088C48.2447 77.7684 48.2818 77.8754 48.4126 78.1085C48.5146 78.2903 48.7233 78.5204 49.0092 78.7734C49.2858 79.0181 49.5841 79.2406 49.8262 79.4227C50.1551 79.67 50.781 79.8874 51.5401 80.0788C51.9029 80.1703 52.2651 80.2492 52.6018 80.3236C52.9277 80.3955 53.2481 80.4671 53.492 80.54C54.7583 80.9185 55.4581 81.135 56.2569 81.3853C57.2706 81.7028 58.0525 81.9755 58.6581 82.1925C59.2615 82.4087 59.6555 82.5555 59.945 82.6458C60.1451 82.6904 60.4192 82.7266 60.8508 82.7482L61.0555 82.7531C61.2724 82.7569 61.5281 82.7562 61.8364 82.7433C62.2251 82.7273 62.5544 83.0293 62.5705 83.418C62.5865 83.8066 62.2835 84.1349 61.8949 84.1511C61.4433 84.1699 61.0901 84.1666 60.803 84.157C60.7995 84.1569 60.7957 84.1562 60.7923 84.156C60.2975 84.1316 59.9214 84.0888 59.5999 84.0137C59.5844 84.01 59.5684 84.0057 59.5531 84.001C59.2204 83.8987 58.7631 83.7275 58.1824 83.5194C57.5883 83.3065 56.825 83.0399 55.8347 82.7297C55.041 82.4811 54.3477 82.2667 53.0883 81.8903C52.904 81.8352 52.638 81.7743 52.2977 81.6992C51.9681 81.6265 51.5826 81.5425 51.195 81.4447C50.4527 81.2575 49.5628 80.9878 48.979 80.5488C48.7453 80.373 48.4019 80.1174 48.0762 79.8293C47.7602 79.5496 47.4044 79.1922 47.1832 78.7978C47.0559 78.5709 46.8659 78.2186 46.8351 77.8151C46.8201 77.6169 46.8439 77.4387 46.8644 77.2983C46.9587 76.6513 47.094 75.9012 47.7135 74.3648C48.0416 73.5511 48.5269 72.865 48.8079 71.5326C49.3231 71.5326 50.223 70.7841 50.223 71.5326Z" fill="#1E1E1E"/>
<path d="M81.3946 59.4697C81.7498 59.5059 82.0273 59.8059 82.0273 60.1707C82.0272 60.3966 81.9197 60.5965 81.7543 60.7254C81.7516 60.7357 81.7485 60.7471 81.7455 60.7586C81.706 60.9135 81.6581 61.1258 81.5993 61.3972C81.4833 61.9324 81.3282 62.6801 81.1274 63.5654C80.9838 64.1991 80.8361 64.767 80.7004 65.2774C80.5688 65.7725 80.4514 66.2032 80.3563 66.6004C80.2208 68.0896 80.2538 70.2659 80.3758 71.1017C80.377 71.1103 80.3777 71.1193 80.3787 71.128C80.4143 71.4578 80.4532 71.9307 80.4918 72.4022C80.5232 72.7898 80.2349 73.1298 79.8473 73.1617C79.4595 73.1934 79.1186 72.9042 79.0869 72.5163C79.048 72.0413 79.0116 71.5947 78.9787 71.2879C78.8368 70.2901 78.8105 67.9753 78.9572 66.42L78.9641 66.3723C78.9667 66.3563 78.9701 66.3402 78.9738 66.3245C79.0767 65.8895 79.2052 65.417 79.3384 64.9157C79.4729 64.4097 79.6159 63.8614 79.7537 63.2534C79.9526 62.3765 80.1022 61.6502 80.2217 61.0988C80.2807 60.8269 80.334 60.5919 80.3806 60.4096C80.418 60.2631 80.4737 60.05 80.56 59.8987L80.5961 59.8412C80.6848 59.7091 80.8151 59.5894 80.9929 59.5214C81.1174 59.4739 81.2377 59.4667 81.2922 59.4658H81.3224L81.3946 59.4697Z" fill="#1E1E1E"/>
<path d="M67.0435 64.1874C67.2435 63.8537 67.6768 63.7448 68.0107 63.9447C68.2628 64.0958 68.3859 64.3807 68.3451 64.6544C68.3884 64.7441 68.4788 64.8825 68.6532 65.0853C68.768 65.2189 68.9001 65.3603 69.049 65.5172C69.1942 65.6704 69.356 65.8398 69.513 66.0145C69.8031 66.337 70.3041 66.625 70.9091 66.8695C71.4995 67.108 72.109 67.2739 72.5617 67.3969C72.802 67.4622 73.1196 67.4779 73.5103 67.4622C73.9538 67.3414 74.5335 67.1255 75.2281 66.7788C75.4793 66.6196 75.832 66.3795 76.2108 66.1217C76.5324 65.903 76.9706 65.9866 77.1897 66.3079C77.4085 66.6296 77.325 67.0687 77.0035 67.2877C76.619 67.5494 76.2281 67.8149 75.9486 67.9906C75.9296 68.0026 75.9101 68.0147 75.8901 68.0248C75.0763 68.4334 74.3686 68.6975 73.7959 68.8457C73.7497 68.8576 73.7022 68.8647 73.6546 68.8671C73.1986 68.8894 72.6712 68.888 72.1922 68.7579C71.7452 68.6364 71.0599 68.4508 70.3817 68.1769C69.7181 67.9087 68.9745 67.5224 68.466 66.9572C68.3244 66.7999 68.1777 66.647 68.0263 66.4873C67.8785 66.3315 67.7246 66.1675 67.5846 66.0047C67.3249 65.7026 67.0167 65.2975 66.9275 64.826C66.9034 64.6982 66.9032 64.5599 66.9421 64.4195C66.9774 64.2928 67.0369 64.1985 67.0435 64.1874Z" fill="#1E1E1E"/>
<path d="M60.3662 64.2645C60.6373 63.9856 61.0835 63.979 61.3626 64.2498C61.6415 64.521 61.6482 64.9671 61.3772 65.2462C60.9719 65.6633 60.5561 66.0913 60.258 66.3664C60.2489 66.3748 60.2393 66.3829 60.2297 66.3908C59.7029 66.8274 59.1668 67.1106 57.5994 67.7674C57.5719 67.7789 57.5432 67.7887 57.5145 67.7966C57.0829 67.9159 56.3392 68.0359 55.5247 68.0862C52.8757 68.2497 55.1153 67.1134 55.4379 66.6794C56.16 66.6348 56.7788 66.5318 57.1002 66.4483C58.613 65.8132 58.9766 65.5965 59.3172 65.3164C59.5796 65.0728 59.9566 64.6859 60.3662 64.2645Z" fill="#1E1E1E"/>
<path d="M55.1406 43.3365C55.33 43.3546 55.4645 43.4372 55.5159 43.4711C55.5407 43.4874 55.5629 43.5047 55.5832 43.5208C55.6125 43.5158 55.6386 43.5114 55.6602 43.5101C55.6746 43.5092 55.6873 43.5092 55.6953 43.5091H55.708C56.0969 43.5092 56.4126 43.8241 56.4129 44.213C56.4129 44.3813 56.3525 44.5355 56.2539 44.6566C56.2496 44.6701 56.2444 44.6833 56.2393 44.6966C56.2483 44.7373 56.2633 44.7908 56.2881 44.8584C56.3454 45.0149 56.4372 45.1994 56.5571 45.4034C56.5843 45.4496 56.6143 45.4947 56.6429 45.5408C56.6456 45.5442 56.6481 45.5482 56.6507 45.5516C57.0042 45.9968 57.4505 46.3096 57.8548 46.6201C58.1508 46.8473 58.773 47.184 59.9353 47.7198C60.5373 47.9973 61.3383 48.2439 62.0187 48.45C62.6589 48.644 63.107 48.747 63.7102 48.8585C64.3239 48.972 65.077 49.0895 65.5558 49.1559C66.1699 49.241 66.9707 49.2464 68.0233 49.2475C68.2675 49.2478 68.5499 49.1796 69.0246 49.036C69.1284 48.7816 69.3706 48.6136 69.6388 48.5992C69.6832 48.5883 69.7604 48.5665 69.8718 48.529C70.0193 48.4794 70.2567 48.3342 70.604 48.0386C70.9337 47.7579 71.3091 47.3884 71.7388 46.9486C72.2401 46.3399 72.6523 45.8217 72.9224 45.4794C72.9541 45.3907 72.988 45.3041 73.017 45.2191L73.0618 45.1138C73.0877 45.0645 73.1238 45.0016 73.1778 44.9344C73.1655 44.8368 73.1707 44.7292 73.21 44.6166C73.284 44.4046 73.4329 44.2959 73.4849 44.2608C73.5917 44.1887 73.6976 44.1617 73.7062 44.1594C73.7352 44.1513 73.764 44.1456 73.7677 44.1447C73.9627 44.1014 74.1565 44.1444 74.3107 44.2471C74.4151 44.2648 74.5675 44.2824 74.7806 44.2978C75.0891 44.3201 75.5343 44.3389 75.9301 44.3768C76.8829 44.4679 78.0918 44.7035 78.9982 44.9452C79.4929 45.077 79.7479 45.0925 80.0706 45.1606C80.4455 45.2399 80.8119 45.4429 81.1138 45.6276C81.2726 45.7248 81.435 45.8305 81.5895 45.9318C81.6682 45.9834 81.7461 46.0344 81.8226 46.0839L82.0507 46.2291L82.1121 46.272C82.1316 46.2873 82.1508 46.3035 82.1687 46.3208C82.3758 46.5211 82.5665 46.7187 82.7068 46.859C82.849 47.001 82.9408 47.0843 83.0032 47.1319C83.0562 47.1625 83.1142 47.1879 83.2167 47.2304C83.5759 47.3796 83.7468 47.7924 83.5979 48.1517C83.4488 48.511 83.036 48.6817 82.6766 48.5329C82.5679 48.4879 82.408 48.422 82.2379 48.3165C82.2249 48.3084 82.2113 48.3 82.1989 48.2911C82.0298 48.1701 81.8606 48.0064 81.7104 47.8563C81.5586 47.7046 81.4125 47.5532 81.2366 47.3815C81.0917 47.2901 80.949 47.1974 80.8164 47.1105C80.6594 47.0076 80.5159 46.9127 80.3787 46.8287C80.0884 46.6511 79.8987 46.5655 79.7791 46.5402C79.6526 46.5135 79.1433 46.4428 78.6345 46.3071C77.788 46.0815 76.6567 45.862 75.7955 45.7797C75.4109 45.7429 75.0631 45.7314 74.6792 45.7037C74.6519 45.7017 74.6236 45.699 74.5954 45.6968C74.4319 45.8671 74.364 45.9378 74.3058 46.0049C74.2017 46.296 74.0577 46.6623 73.8642 46.9837C73.8519 47.0042 73.8384 47.025 73.8242 47.0442C73.6196 47.3194 73.0988 47.9925 72.1337 48.7961C71.6963 49.1603 71.3104 49.4834 70.9608 49.735C70.6086 49.9885 70.2502 50.2017 69.8552 50.3258C69.2084 50.529 68.6031 50.7251 68.0224 50.7246C67.0039 50.7235 66.0892 50.7213 65.353 50.6193C64.8559 50.5504 64.0802 50.4294 63.4412 50.3112C62.7917 50.1911 62.2901 50.0756 61.5907 49.8637C60.9316 49.664 60.0286 49.3892 59.3172 49.0613C59.2283 49.0204 59.1423 48.978 59.0579 48.9385C58.8227 49.0932 58.508 49.099 58.2643 48.9268C57.7635 48.5728 57.2744 48.2268 56.953 47.9967C56.6422 47.7742 56.4573 47.6383 56.3027 47.4956C56.2688 47.4643 56.2372 47.4305 56.2101 47.3932C56.0925 47.2315 55.9421 47.0255 55.784 46.7985C55.6849 46.6948 55.586 46.5865 55.4935 46.47C55.2356 46.145 54.9706 45.8018 54.7594 45.4677C54.7405 45.4379 54.7234 45.4059 54.7048 45.3751C54.4305 45.4488 54.1024 45.5349 53.7386 45.6169C52.8069 45.9427 51.6075 46.5206 51.1482 46.8278C50.6815 47.1401 50.126 47.4439 49.6575 47.7227C49.1649 48.016 48.7181 48.3095 48.3482 48.6519C48.1645 48.8219 48.0194 48.9625 47.9163 49.0779C47.9135 49.081 47.9112 49.0846 47.9085 49.0877C47.8781 49.3431 47.7085 49.5726 47.4503 49.6668C47.4459 49.6684 47.4087 49.6828 47.3684 49.6941C47.3435 49.701 47.2205 49.7371 47.0681 49.7184C46.9806 49.7077 46.8509 49.6748 46.724 49.58C46.5888 49.4789 46.5064 49.3434 46.4666 49.2115C46.4009 48.9934 46.4578 48.8106 46.4715 48.7669L46.5066 48.6714C46.5971 48.454 46.7498 48.2684 46.8653 48.139C47.0157 47.9708 47.2022 47.7921 47.3908 47.6175C47.8722 47.1718 48.422 46.8179 48.9361 46.5119C49.4744 46.1915 49.9369 45.9428 50.3644 45.6569C50.9598 45.2585 52.3011 44.6234 53.3106 44.2744C53.3356 44.2658 53.3609 44.2578 53.3867 44.252C53.7236 44.1768 54.0296 44.0991 54.2914 44.0297C54.296 43.9982 54.3015 43.9659 54.3099 43.9332C54.331 43.8515 54.3814 43.7032 54.5117 43.5686C54.667 43.4085 54.8942 43.3131 55.1406 43.3365Z" fill="#1E1E1E"/>
</g>
</g>
</g>
</svg>
