<svg width="80" height="80" viewBox="0 0 80 80" fill="none" xmlns="http://www.w3.org/2000/svg">
<g id="Favicon">
<circle id="halo" cx="40" cy="40" r="39.4959" stroke="#D2D2D2" stroke-width="1.00824"/>
<g id="Group 2268">
<mask id="mask0_4711_6244" style="mask-type:alpha" maskUnits="userSpaceOnUse" x="0" y="0" width="80" height="80">
<circle id="halo_2" cx="40" cy="40" r="40" fill="#D2D2D2"/>
</mask>
<g mask="url(#mask0_4711_6244)">
<path id="Vector" d="M24.5174 22.8618C24.4938 22.8618 24.4702 22.8618 24.4408 22.8739M24.4408 22.8739C24.4087 22.8872 24.3698 22.9149 24.3164 22.9729C24.09 23.2186 23.8175 24.3559 23.5403 26.1473M24.4408 22.8739C24.8698 21.2921 25.2354 19.9345 25.514 19.019C26.0685 17.1966 26.2719 17.1287 26.3735 17.1074C26.4752 17.0862 26.4752 17.1109 26.4752 17.1356M24.4408 22.8739C24.1648 23.8916 23.8625 25.0021 23.5403 26.1473M23.5403 26.1473C23.4685 26.6113 23.3964 27.119 23.3247 27.6666C23.1526 28.9808 23.1567 29.941 23.242 30.8339M23.5403 26.1473C23.3663 26.7658 23.1865 27.3943 23.0018 28.0239C22.8715 28.4681 22.7393 28.9112 22.6057 29.3515M23.242 30.8339C23.2897 31.3333 23.3628 31.8117 23.4447 32.3193C23.6287 33.4598 24.0304 35.4446 24.4706 37.2097C25.2876 40.486 26.0531 42.8045 26.3111 44.1444C26.5906 45.5958 27.901 48.4263 29.405 50.994C30.8002 53.3759 32.3258 54.8719 32.8286 55.3451C33.7631 56.2245 36.6516 56.8701 38.7336 57.2909C41.2441 57.7983 44.4555 55.6684 44.9806 55.3292C45.925 54.7191 47.9713 52.3086 49.6799 50.1515C51.6048 47.7211 52.547 45.1511 53.0436 43.7934C53.3262 43.0209 53.5403 42.0342 53.8644 40.4172C53.966 39.9107 54.0744 39.3441 54.1819 38.7582M23.242 30.8339C23.3493 30.2075 23.5131 29.5328 23.786 28.6117C25.0767 24.2566 25.9751 21.3276 26.3035 20.7073C26.6576 20.0385 27.0111 19.3507 27.4933 18.7775C28.4906 17.5918 30.096 15.4291 31.8381 14.7395C32.1196 14.6281 32.3969 14.6096 32.5895 14.6353C32.7821 14.661 32.8868 14.7289 32.9916 14.7969M23.242 30.8339C23.145 31.4 23.0942 31.9266 23.0507 32.5599C22.959 33.8941 22.9343 35.6847 22.9925 37.243C23.1924 40.0733 23.4493 41.9517 23.6697 42.9729C23.712 43.148 23.7536 43.3034 23.8079 43.4526M54.1819 38.7582C54.4175 37.4738 54.6485 36.0965 54.7922 35.0557C55.0015 33.5401 55.0138 32.8054 54.9308 31.2939C54.8479 29.7824 54.6692 27.5164 54.42 25.3736C54.3927 25.1388 54.3646 24.9063 54.3358 24.6757M54.1819 38.7582C54.1738 38.711 54.1656 38.6636 54.1574 38.6161C53.7165 36.0712 53.1295 33.3351 52.5772 31.4335C51.7091 28.4443 50.9986 26.3362 49.4869 23.8375C47.1428 19.9631 45.6098 17.5027 45.0684 16.9005L44.9942 16.818C44.0658 15.7852 43.28 14.9112 42.6256 14.4174C40.884 13.1032 39.0284 12.068 38.3316 11.7284M54.1819 38.7582C54.6068 41.246 54.83 43.4752 55.0239 45.0361C55.2214 46.6266 55.3816 47.454 55.6027 48.8303M54.3358 24.6757C54.1625 23.2877 53.9634 21.9712 53.7547 20.6541M54.3358 24.6757C54.0062 23.4426 53.7514 22.8004 53.3866 22.1382C51.387 18.5085 50.4049 15.9553 49.3657 15.0644C48.2779 14.1319 45.2022 11.3924 43.0431 11.5701C42.834 11.5873 42.6553 11.7047 42.566 11.811C42.4767 11.9174 42.4767 12.01 42.4767 12.1026M54.3358 24.6757C54.4546 25.12 54.5831 25.6409 54.7299 26.2671C55.1425 28.0268 55.5986 30.9716 55.9267 33.1771C56.2549 35.3825 56.3843 36.7717 56.5495 38.1542C56.7053 39.4572 56.8894 40.7168 57.0801 42.0078M53.7547 20.6541C53.6817 20.1937 53.6075 19.7332 53.5329 19.2696M53.7547 20.6541C53.4937 19.7988 53.324 19.316 53.1087 18.847C52.5062 17.5345 51.3942 15.3917 49.5722 13.3513C49.4963 13.2663 49.4214 13.1831 49.3478 13.1017M53.7547 20.6541C53.8616 21.0044 53.9838 21.4172 54.1307 21.9171C54.6364 23.6377 55.4066 26.3791 56.0037 28.8317C56.6007 31.2843 57.0012 33.365 57.2753 34.6839C57.5494 36.0027 57.6849 36.4967 58.2015 37.8965C58.718 39.2962 59.6114 41.5869 60.4044 43.4276C61.1974 45.2683 61.8628 46.5896 63.0339 48.007M28.9061 35.1911C28.8384 35.1911 28.7706 35.1911 28.6463 35.2189C28.5221 35.2467 28.3434 35.3023 28.3992 35.3371C28.7508 35.3842 29.265 35.3846 30.0723 35.227C30.67 35.0817 31.6497 34.8038 32.6591 34.5176M41.1733 32.8711C41.656 32.8587 42.5886 32.7472 44.1977 32.4235C45.5268 31.8875 46.3498 31.4375 46.6944 31.2479C46.8664 31.1447 47.0328 31.0274 47.4469 30.8317M35.7212 40.3176C35.6719 40.3053 35.6227 40.2929 35.5788 40.4286C35.115 41.8623 35.5401 43.8321 35.6889 44.3923C35.7603 44.6608 35.887 44.8784 36.0612 45.0639C36.2354 45.2494 36.4696 45.3914 36.6857 45.4677C36.9018 45.5439 37.0928 45.5501 37.3453 45.5008C37.5977 45.4515 37.9058 45.3465 38.1477 45.24C38.3896 45.1334 38.5559 45.0284 38.7273 44.9203M41.5654 50.5146C41.5469 50.5701 41.5284 50.6257 41.5004 50.747C41.4724 50.8682 41.4354 51.0534 41.5119 51.1735C41.5884 51.2937 41.7794 51.3431 41.9856 51.3129C42.1918 51.2828 42.4075 51.1717 42.6541 51.0033C43.1719 50.6126 43.6915 50.1119 44.1757 49.5429C44.4197 49.2455 44.66 48.9306 45.169 48.2132M34.6533 13.7491C34.6903 13.7491 34.9003 13.78 35.4269 13.9471C36.2653 14.2133 37.4163 15.0519 38.9496 16.169L39.0228 16.2224C40.8481 17.5522 42.0629 18.6732 43.0809 19.7703C45.014 21.8536 46.2778 23.5567 46.9302 24.845C48.242 27.6398 49.2404 29.9162 49.5477 30.9294C49.701 31.4919 49.8489 32.1526 50.0013 32.8333M57.0801 42.0078L57.1151 42.2444M57.0801 42.0078C57.1466 41.5077 57.1898 41.2912 57.1898 41.2715M57.0801 42.0078C57.0633 42.1344 57.045 42.2792 57.0255 42.4436C56.8903 43.5829 57.4592 46.4631 58.1929 49.988C58.4891 51.3148 58.6308 51.7038 58.7624 51.9937C58.8939 52.2836 59.011 52.4626 59.281 52.7781M46.1363 9.96969C46.5098 10.2668 47.6205 11.1932 49.3478 13.1017M49.3478 13.1017C48.8842 12.7701 48.4001 12.4466 47.8832 12.1241C46.7349 11.4077 44.8269 10.426 43.0447 10.0898C41.9725 9.88755 40.5099 9.72198 39.0797 9.80168C38.0724 9.8578 37.3105 9.9119 36.2585 10.346C34.393 11.1159 32.9509 11.6857 32.5911 12.0837C32.4236 12.2691 32.3435 12.4852 32.3098 12.606C32.2761 12.7268 32.2884 12.7515 32.3007 12.7762M49.3478 13.1017C50.537 13.9524 51.5913 14.8572 52.7188 15.9391C53.5759 16.7616 54.2673 17.747 55.3644 19.7465C56.5908 21.9815 58.092 23.6182 59.5866 26.3586C60.1904 27.4656 60.7043 28.141 61.3264 28.7712C62.423 29.7409 64.3841 31.2584 66.4244 32.7297C67.1893 33.2686 67.4049 33.386 68.1126 33.6378M23.8079 43.4526C23.8941 43.6896 24.0122 43.9111 24.216 44.1715M23.8079 43.4526L23.79 42.9608C23.7685 42.371 23.749 41.8336 23.7328 41.3792C23.6558 38.9424 23.6558 38.5817 23.6558 38.4088M23.8079 43.4526C23.8861 45.6041 23.9826 48.2925 24.034 50.2091C24.1041 52.8235 24.0856 53.8793 24.0666 54.9671M27.3901 16.6117C27.3178 16.6117 27.0678 16.6117 26.6304 16.7127M26.6304 16.7127L26.6 16.7198C26.3488 16.7793 26.1253 17.0439 25.7674 17.5875C24.8695 18.9508 24.1876 20.5651 23.6875 21.9832C23.1956 23.3777 22.9306 25.9197 22.6057 29.3515M26.6304 16.7127C26.5969 16.7744 26.5813 16.8304 26.588 16.8803C26.5962 16.9414 26.7317 16.8982 26.8673 16.855M26.6304 16.7127C26.7667 16.4615 27.1984 16.1171 27.6196 15.7173C28.0984 15.2628 28.6385 14.9419 29.3048 14.6061C30.2251 14.1423 31.0968 13.9431 31.6154 13.831C32.0785 13.7682 32.5656 13.7738 33.0996 13.8236C33.3685 13.8486 33.6335 13.8733 34.1678 13.8988M22.6057 29.3515L22.5443 30.002C22.2179 33.4685 22.0204 36.0426 21.5623 38.2723C20.4536 43.6686 19.7557 44.622 19.2266 45.4752C18.9349 45.7903 18.493 46.1525 17.9956 46.5881C17.7879 46.8014 17.6709 46.999 17.4755 47.6703M22.6057 29.3515C21.6544 32.4871 20.6363 35.484 19.7939 37.7696C18.8331 40.3762 18.1369 41.9506 17.5256 43.2495C16.9143 44.5483 16.409 45.5239 16.0378 46.7348M26.0831 44.9386C26.0831 45.2223 26.0831 45.5073 26.0862 46.0574C26.0892 46.6081 26.0954 47.4169 26.1725 48.5869C26.2496 49.7568 26.3975 51.2633 26.5499 52.8155M19.9962 44.976C19.9839 45.0625 19.9715 45.1489 19.7803 46.5796L19.7665 46.6834C19.5716 48.1416 19.2087 50.8576 18.7639 53.9568M55.3413 25.5364C55.3413 25.5858 55.6124 26.2719 56.6763 28.2638C58.5241 31.7235 60.46 33.9834 61.1614 34.6681C63.0141 35.8671 65.3159 36.8714 66.7733 37.4659C67.4051 37.7454 67.8179 37.98 68.2433 38.2217M52.3725 46.6225C52.3294 46.6225 52.2863 46.6225 52.2548 46.7491C52.2049 47.1288 52.2105 49.6741 52.257 53.2435C52.279 54.5284 52.2975 54.7445 52.5592 55.4162M31.7965 14.853C31.7965 14.8406 31.5871 15.3282 30.826 17.3238C30.256 18.8186 29.3872 21.3199 28.582 23.386C27.7768 25.452 27.0805 27.0141 26.6325 28.0967C26.1845 29.1792 26.0058 29.7349 25.8217 30.3074M45.8704 55.0522C45.8704 55.0769 45.8335 55.3613 45.7867 55.8871C45.6446 57.4843 47.1244 59.8599 47.7911 60.9578C48.4333 61.8787 48.8194 62.6831 49.0398 63.1936C49.1493 63.4262 49.2541 63.6053 49.6607 63.9581M34.7235 56.549C34.7235 56.5428 34.7235 56.5366 34.6619 56.6446C34.2515 58.414 33.7679 62.6615 33.4301 64.3162C33.3491 64.5546 33.2444 64.7769 33.0431 64.8749M49.8846 64.2257C49.7625 64.2257 49.6404 64.2257 49.655 64.2234C49.8225 64.1964 50.3504 64.1786 51.1611 64.1287C52.1157 64.0699 54.3864 64.361 57.1077 64.7624C58.993 65.0404 60.517 65.7215 61.5869 65.8459C62.6522 65.9698 63.4492 66.2439 64.2946 66.435C65.1612 66.6309 65.9072 66.5584 66.2502 66.7029C66.5267 66.8629 66.8202 67.0354 67.1074 67.2049M67.1074 67.2049C67.8104 67.62 68.4759 68.0169 68.7633 68.1684C68.9474 68.2736 69.0882 68.3724 69.4752 68.7165M67.1074 67.2049C67.0601 67.1627 67.0285 67.1339 67.0139 67.1198M67.1074 67.2049C67.5013 67.5565 68.9884 68.8393 70.8912 70.3556C72.0392 71.2703 72.8416 71.7266 73.5514 72.1437C73.8877 72.3413 74.1593 72.6687 74.4054 73.0004C74.6485 73.328 74.753 73.6716 74.81 73.9771C74.831 74.0895 74.824 74.2168 74.6536 74.8632M31.7878 66.0363C31.5853 65.9228 30.1161 65.4601 28.3031 65.0917C26.5864 64.7428 24.3722 64.8151 22.3018 64.8667C20.4519 64.9128 19.196 65.2987 18.1479 65.6343C17.4788 65.8485 16.5552 66.2239 15.0669 66.9797C13.5786 67.7355 11.5598 68.8787 10.4494 69.5077C9.33894 70.1366 9.19809 70.2166 9.05041 70.3142C8.90274 70.4119 8.7525 70.5248 8.39853 70.7694M74.6536 74.8632C74.571 75.1765 74.45 75.6117 74.2752 76.2263C73.7398 78.1087 72.6834 81.6701 71.9021 84.6833C71.1208 87.6964 70.6466 90.0534 70.2873 92.0792C69.928 94.105 69.698 95.728 69.5396 96.9688C69.3812 98.2095 69.3013 99.0187 68.9926 100.687C68.6839 102.355 68.1487 104.858 67.8448 106.34C67.5409 107.823 67.4845 108.208 67.4461 108.995C67.4077 109.782 67.3889 110.958 67.3696 112.17M74.6536 74.8632C74.4735 74.496 74.3346 74.1234 74.2744 73.7752C74.2582 73.6813 74.2723 73.6907 74.2864 73.7001M74.6536 74.8632C75.1428 75.8612 75.9351 76.82 76.2716 77.1439C76.8739 77.7235 77.9112 78.1506 78.5734 78.6971C79.285 79.2844 80.2684 80.907 81.7492 83.105C82.4652 84.1676 83.1831 85.0724 84.0059 86.3095C84.8288 87.5466 85.7537 89.0756 86.5189 90.2679C87.8206 92.2961 88.5739 93.3194 88.8104 93.7791C89.0663 94.2762 89.4636 95.3522 90.3531 97.2955C90.8911 98.4709 91.8295 99.921 92.3874 100.913C92.9454 101.904 93.152 102.365 93.465 103.155C93.778 103.946 94.1911 105.051 94.7772 106.891C95.3633 108.731 96.1098 111.271 96.5038 112.667C96.8977 114.063 96.9165 114.237 96.9215 114.421C96.9315 114.793 96.8463 115.382 96.7069 116.058C96.648 116.344 96.5346 116.495 96.383 116.676C96.0461 117.078 94.9105 117.94 92.8757 119.392C90.4591 121.117 88.819 122.038 88.0882 122.385C86.7435 123.024 84.886 123.929 82.5541 125.088C81.2311 125.745 79.5134 126.308 78.3939 126.731C76.7704 127.345 75.3062 127.876 73.4254 128.518C70.5464 129.501 69.1103 130.109 67.5175 130.732C66.5052 131.128 65.7339 131.68 64.7674 132.034C62.9815 132.689 61.3728 133.218 60.5279 133.565C59.073 134.161 57.7014 134.255 56.6047 134.76C55.8282 135.16 55.2614 135.449 54.9824 135.591C54.8356 135.671 54.6769 135.769 54.5133 135.871L54.5113 135.872M6.90469 70.969C6.85774 70.9596 6.81079 70.9502 7.18098 72.4132C7.55117 73.8762 8.33992 76.8118 9.03498 80.0743C9.73004 83.3367 10.3075 86.8369 10.6308 89.0353C10.9541 91.2336 11.0058 92.024 11.03 92.9133C11.0543 93.8027 11.0496 94.7672 10.9157 96.7859C10.7818 98.8047 10.5189 101.849 10.1041 104.588C9.68935 107.328 9.13065 109.67 8.80763 110.99C8.4846 112.31 8.41418 112.536 8.33565 112.737C8.25711 112.938 8.17261 113.107 8.08554 113.282M7.53511 113.068C7.52156 113.244 7.39031 113.961 6.68992 115.747M6.68992 115.747C6.66226 115.817 6.6337 115.889 6.60423 115.963C6.41172 116.446 6.23419 116.744 6.14961 116.984C6.06504 117.224 6.06034 117.389 6.40065 117.829C8.18639 120.138 9.30538 120.654 10.8504 121.58C12.0486 122.298 14.1419 123.428 15.4011 124.101C17.0192 124.967 18.0051 125.269 19.0726 125.564C19.9203 125.797 21.3486 126.006 24.2352 126.634C26.0979 127.04 28.7135 127.855 30.9247 128.415C31.7346 128.62 32.4777 128.795 33.1591 128.946M6.68992 115.747C6.4451 115.634 6.19334 115.518 5.93346 115.398L5.9293 115.397C5.23033 115.075 4.29614 114.404 2.67963 113.608C0.769577 112.667 -0.499115 112.154 -0.590663 111.9C-0.632062 111.785 -0.583584 111.639 -0.499185 111.505C-0.328746 111.235 -0.247034 110.727 0.153198 110.16C0.563282 109.579 0.577599 108.859 1.14339 108.268C1.56501 107.827 1.99264 107.421 2.21839 107.052C2.39787 106.758 2.5197 106.347 2.81187 105.836C3.64714 104.374 4.66458 103.063 5.67976 101.471C6.4513 100.262 7.02479 99.3224 7.61308 97.8344C8.90233 94.5735 9.60177 92.3921 9.41506 92.2391C9.34905 92.185 9.33027 92.185 9.31149 92.185M6.68992 115.747C8.40435 116.534 9.77835 117.149 11.2166 117.671C11.7655 117.87 12.089 118.078 12.5678 118.404C13.436 118.996 15.3392 120.04 17.6256 121.047C19.4869 121.867 20.3813 122.363 21.3676 123.071C22.0106 123.533 22.8144 123.737 23.4791 123.99C24.1768 124.185 24.9245 124.46 25.5399 124.641C25.6946 124.67 25.859 124.68 26.0852 124.732M33.1591 128.946C34.3383 129.206 35.3328 129.393 36.169 129.532C37.4884 129.751 38.3617 129.841 39.7012 129.903C41.0408 129.966 42.8202 129.999 44.3025 130.053C45.2108 130.087 45.9874 130.128 46.679 130.164M33.1591 128.946C31.1615 127.334 29.8138 126.171 28.7325 125.518C27.6208 124.848 26.8521 124.371 26.412 124.287C26.0503 124.219 25.5905 124.253 25.3311 124.29M33.1591 128.946C33.2628 129.029 33.3682 129.114 33.4755 129.2C34.708 130.189 36.3437 131.207 37.4689 131.893C39.1035 132.891 40.1495 133.473 40.9778 133.91M46.679 130.164C47.1162 130.186 47.5195 130.207 47.9007 130.222C48.885 130.261 49.6878 130.261 51.0216 130.122C52.3554 129.983 54.1958 129.706 55.4021 129.499C57.1317 129.203 57.9293 128.941 59.3841 128.328C60.5742 127.826 62.6512 126.868 64.0514 126.282C66.0798 125.433 67.0019 125.196 67.4278 125.011C67.8108 124.845 68.0748 124.612 68.2853 124.394C68.4811 124.178 68.6685 123.879 68.822 123.518M46.679 130.164C48.7653 128.486 50.156 127.277 51.2659 126.607C52.3776 125.937 53.1463 125.46 53.5865 125.376C53.9481 125.308 54.4079 125.342 54.6673 125.379M46.679 130.164C46.6274 130.205 46.5754 130.247 46.523 130.289C45.2905 131.278 43.6547 132.296 42.5295 132.983C41.9419 133.341 41.4304 133.646 40.9778 133.91M68.822 123.518C68.8373 123.482 68.8522 123.446 68.8667 123.409C68.9339 123.21 68.9714 123.032 69.0101 122.776M68.822 123.518C68.8045 123.479 68.7877 123.44 68.7718 123.403C68.6331 123.046 68.302 121.62 67.9758 119.139M68.822 123.518C68.9039 123.702 69 123.903 69.075 124.066C69.1661 124.262 69.2224 124.394 69.3373 124.715M67.1606 110.573C67.1087 110.799 67.2207 112.4 67.5142 114.791C67.667 116.036 67.7513 117.356 67.9219 118.719C67.9398 118.862 67.9578 119.002 67.9758 119.139M67.9758 119.139C68.2182 118.995 68.4617 118.876 68.7819 118.76C70.4255 118.164 71.9851 117.446 74.065 116.488L74.0691 116.486C74.7681 116.164 75.7023 115.493 77.3188 114.697C79.2289 113.756 80.4976 113.243 80.5891 112.989C80.6305 112.874 80.582 112.728 80.4976 112.594C80.3272 112.324 80.2455 111.816 79.8452 111.249C79.4352 110.669 79.4208 109.949 78.855 109.357C78.4334 108.916 78.0058 108.511 77.7801 108.141C77.6006 107.848 77.4787 107.436 77.1866 106.925C76.3513 105.463 75.3339 104.152 74.3187 102.56C73.5471 101.351 72.9737 100.412 72.3854 98.9235C71.0961 95.6626 70.3967 93.4812 70.5834 93.3282C70.6494 93.2741 70.6682 93.2741 70.687 93.2741M67.9758 119.139C67.8027 119.242 67.6302 119.358 67.4307 119.493C66.5624 120.085 64.6592 121.129 62.3729 122.136C60.5115 122.956 59.6172 123.452 58.6308 124.16C57.9878 124.622 57.1841 124.827 56.5193 125.079C55.8217 125.274 55.0739 125.549 54.4585 125.731C54.3038 125.76 54.1395 125.769 53.9133 125.821M32.0327 65.83C31.9763 65.8582 31.92 65.8865 31.945 65.948C32.0219 66.1378 32.4615 66.3042 33.2216 66.7612C34.6319 67.6091 35.1123 68.0526 35.7129 68.3003C36.9511 68.811 39.2173 69.0325 41.1505 69.0025C42.4371 68.9826 43.3127 68.7008 43.9965 68.4295C45.2929 67.9151 46.2013 67.3185 46.4947 67.0887C47.1288 66.5921 47.7684 65.6347 48.427 64.9885C48.5911 64.8616 48.7742 64.7628 48.9272 64.6554C49.0802 64.5481 49.1976 64.4352 49.3328 64.1905M40.9778 133.91C39.4903 134.776 38.638 135.199 37.8096 135.623C35.2165 136.949 34.1596 136.916 33.2374 137.465C32.7515 137.755 31.9769 138.313 31.533 138.658C31.4955 138.687 31.4607 138.715 31.4283 138.741M40.9778 133.91C41.4255 134.146 41.8097 134.339 42.1888 134.533C44.7819 135.86 45.8388 135.827 46.761 136.376C47.2469 136.665 48.0216 137.224 48.4654 137.569C48.9093 137.913 48.9844 138.05 48.9738 138.188C48.9632 138.327 48.8647 138.463 48.7082 138.623C48.3585 138.98 47.9773 139.24 47.6347 139.436C47.2107 139.68 46.6791 139.824 46.1516 139.941C44.4049 140.326 41.511 139.898 39.7685 139.579C39.3568 139.504 39.001 139.409 38.8924 139.393C38.8312 139.384 39.2108 139.629 39.438 139.897C39.5516 140.031 39.6276 140.188 39.6312 140.338C39.6349 140.489 39.5551 140.635 39.4341 140.738C39.3919 140.774 39.3448 140.805 39.2893 140.83M31.4283 138.741C31.077 139.025 31.0149 139.151 31.0246 139.277C31.0352 139.416 31.1338 139.552 31.2902 139.712C31.6399 140.069 32.0211 140.329 32.3637 140.525C32.7878 140.769 33.3194 140.913 33.8468 141.03C35.1065 141.307 36.9628 141.163 38.5536 140.94M31.4283 138.741C31.5255 138.775 31.6235 138.806 31.7221 138.833C33.1938 139.233 34.8296 140.342 36.3988 140.672C37.1317 140.827 37.9067 140.949 38.5536 140.94M31.4283 138.741C30.5773 138.438 29.7824 137.868 29.1141 137.562C27.9888 137.193 27.4525 136.975 26.8117 136.632C26.3258 136.365 25.5136 135.909 24.6769 135.439M38.5536 140.94C38.8067 140.905 39.0531 140.868 39.2893 140.83M38.5536 140.94C38.6611 140.939 38.7651 140.934 38.8648 140.925C39.0526 140.907 39.1858 140.877 39.2893 140.83M39.2893 140.83C39.6271 140.776 39.944 140.721 40.23 140.668C40.6417 140.593 40.9974 140.498 41.1061 140.482C41.1672 140.474 40.7877 140.718 40.5605 140.986C40.4468 141.12 40.3708 141.277 40.3672 141.427C40.3636 141.578 40.4434 141.724 40.5643 141.827C40.6853 141.931 40.8449 141.987 41.1337 142.014C41.833 142.078 42.7449 141.941 43.5997 141.761C45.1689 141.431 46.8046 140.322 48.2763 139.922C49.2378 139.661 50.1397 138.992 50.8843 138.651C52.0097 138.282 52.5459 138.064 53.1868 137.721C53.6726 137.454 54.4848 136.998 55.3216 136.528M5.71206 72.611C5.72614 72.6016 5.74022 72.5922 5.724 72.6861C5.50055 73.9805 4.1872 75.6117 3.72681 76.0548C3.12453 76.6344 2.08728 77.0615 1.42509 77.608C0.713431 78.1952 -0.269985 79.8179 -1.7508 82.0158C-2.46675 83.0785 -3.18467 83.9833 -4.0075 85.2204C-4.83032 86.4575 -5.75522 87.9865 -6.52043 89.1787C-7.8222 91.207 -8.57544 92.2303 -8.81197 92.6899C-9.06782 93.1871 -9.46521 94.2631 -10.3547 96.2064C-10.8927 97.3818 -11.831 98.8319 -12.389 99.8234C-12.947 100.815 -13.1536 101.276 -13.4666 102.066C-13.7796 102.857 -14.1927 103.962 -14.7788 105.802C-15.3649 107.642 -16.1114 110.182 -16.5053 111.578C-16.8993 112.974 -16.918 113.148 -16.923 113.332C-16.9331 113.703 -16.8479 114.293 -16.7085 114.969C-16.6495 115.255 -16.5362 115.405 -16.3845 115.587C-16.0477 115.989 -14.912 116.851 -12.8772 118.303C-10.4606 120.028 -8.82059 120.949 -8.08974 121.296C-6.74501 121.935 -4.88752 122.84 -2.55571 123.999C-1.23266 124.656 0.485035 125.219 1.60456 125.642C3.22805 126.256 4.69226 126.787 6.57301 127.429C9.45209 128.412 10.8881 129.02 12.4809 129.643C13.4932 130.039 14.2645 130.59 15.2311 130.945C17.017 131.6 18.6257 132.129 19.4705 132.476C20.9254 133.072 22.2971 133.166 23.3937 133.671C24.1702 134.07 24.737 134.359 25.016 134.502C25.1633 134.582 25.3226 134.681 25.4867 134.782M44.3396 29.4472C44.3325 29.4472 44.2654 29.5271 44.1683 29.6946M44.1683 29.6946C44.1429 29.7384 44.1155 29.7882 44.0865 29.8442C44.019 29.9745 44.068 30.1379 44.1199 30.3108L44.1216 30.3162C44.174 30.4911 44.2556 30.6819 44.3475 30.7279C44.4393 30.7739 44.539 30.6695 44.5949 30.3341C44.743 29.4455 44.642 28.6965 44.5419 28.5102C44.5051 28.4416 44.3512 28.5918 44.2791 28.7456C44.2071 28.8993 44.1845 29.0946 44.1728 29.2974C44.1655 29.4233 44.1628 29.5498 44.1683 29.6946ZM44.1683 29.6946C44.1717 29.7829 44.1782 29.878 44.1886 29.9839M31.39 31.7715C31.3238 32.0296 31.2687 32.267 31.2262 32.4713M31.2262 32.4713C31.2245 32.4796 31.2228 32.4879 31.2211 32.4961M31.2262 32.4713C31.2256 32.4812 31.2251 32.491 31.2245 32.5009M31.2262 32.4713C31.2604 31.8791 31.2844 31.1683 31.2622 31.0323C31.2169 30.9946 31.1263 31.1671 31.0728 31.5012C31.0264 31.7909 31.01 32.1981 31.2211 32.4961M31.2211 32.4961C31.1563 32.8114 31.1226 33.0443 31.1266 33.1469C31.1433 33.5737 31.189 33.1062 31.2245 32.5009M31.2211 32.4961L31.2245 32.5009M31.2245 32.5009C31.2561 32.5448 31.2927 32.5864 31.335 32.6247" stroke="#0E0E0E" stroke-width="1.5" stroke-linecap="round" stroke-linejoin="round"/>
</g>
</g>
</g>
</svg>
